<mxfile host="app.diagrams.net" agent="Mozilla/5.0 (Macintosh; Intel Mac OS X 10_15_7) AppleWebKit/605.1.15 (KHTML, like Gecko) Version/18.3.1 Safari/605.1.15" version="26.2.12">
  <diagram name="Page-1" id="MCokuwG6os_PI19OrNsB">
    <mxGraphModel dx="694" dy="1790" grid="1" gridSize="5" guides="1" tooltips="1" connect="1" arrows="1" fold="1" page="1" pageScale="1" pageWidth="827" pageHeight="1169" math="0" shadow="0">
      <root>
        <mxCell id="0" />
        <mxCell id="1" parent="0" />
        <mxCell id="ROZJgOX0GMissYNZLgex-5" style="edgeStyle=orthogonalEdgeStyle;rounded=0;orthogonalLoop=1;jettySize=auto;html=1;exitX=0.5;exitY=1;exitDx=0;exitDy=0;entryX=0.5;entryY=0;entryDx=0;entryDy=0;" parent="1" source="ROZJgOX0GMissYNZLgex-1" target="ROZJgOX0GMissYNZLgex-4" edge="1">
          <mxGeometry relative="1" as="geometry" />
        </mxCell>
        <mxCell id="ROZJgOX0GMissYNZLgex-1" value="Startup" style="rounded=0;whiteSpace=wrap;html=1;" parent="1" vertex="1">
          <mxGeometry x="354" y="160" width="120" height="60" as="geometry" />
        </mxCell>
        <mxCell id="ROZJgOX0GMissYNZLgex-3" style="edgeStyle=orthogonalEdgeStyle;rounded=0;orthogonalLoop=1;jettySize=auto;html=1;exitX=0.5;exitY=1;exitDx=0;exitDy=0;entryX=0.5;entryY=0;entryDx=0;entryDy=0;" parent="1" source="ROZJgOX0GMissYNZLgex-2" target="ROZJgOX0GMissYNZLgex-1" edge="1">
          <mxGeometry relative="1" as="geometry" />
        </mxCell>
        <mxCell id="ROZJgOX0GMissYNZLgex-2" value="Start" style="ellipse;whiteSpace=wrap;html=1;" parent="1" vertex="1">
          <mxGeometry x="354" y="40" width="120" height="80" as="geometry" />
        </mxCell>
        <mxCell id="ROZJgOX0GMissYNZLgex-26" style="edgeStyle=orthogonalEdgeStyle;rounded=0;orthogonalLoop=1;jettySize=auto;html=1;exitX=1;exitY=0.5;exitDx=0;exitDy=0;entryX=1;entryY=0.5;entryDx=0;entryDy=0;" parent="1" source="ROZJgOX0GMissYNZLgex-4" target="ROZJgOX0GMissYNZLgex-1" edge="1">
          <mxGeometry relative="1" as="geometry" />
        </mxCell>
        <mxCell id="ROZJgOX0GMissYNZLgex-78" style="edgeStyle=orthogonalEdgeStyle;rounded=0;orthogonalLoop=1;jettySize=auto;html=1;exitX=0.5;exitY=1;exitDx=0;exitDy=0;entryX=0.5;entryY=0;entryDx=0;entryDy=0;" parent="1" source="ROZJgOX0GMissYNZLgex-4" target="ROZJgOX0GMissYNZLgex-77" edge="1">
          <mxGeometry relative="1" as="geometry" />
        </mxCell>
        <mxCell id="ROZJgOX0GMissYNZLgex-4" value="Startup finished?" style="rhombus;whiteSpace=wrap;html=1;" parent="1" vertex="1">
          <mxGeometry x="334" y="260" width="160" height="80" as="geometry" />
        </mxCell>
        <mxCell id="ROZJgOX0GMissYNZLgex-31" style="edgeStyle=orthogonalEdgeStyle;rounded=0;orthogonalLoop=1;jettySize=auto;html=1;exitX=0.5;exitY=1;exitDx=0;exitDy=0;entryX=0.5;entryY=0;entryDx=0;entryDy=0;" parent="1" source="ROZJgOX0GMissYNZLgex-6" target="ROZJgOX0GMissYNZLgex-30" edge="1">
          <mxGeometry relative="1" as="geometry" />
        </mxCell>
        <mxCell id="ROZJgOX0GMissYNZLgex-6" value="Wait for status byte" style="rounded=0;whiteSpace=wrap;html=1;" parent="1" vertex="1">
          <mxGeometry x="354" y="585" width="120" height="60" as="geometry" />
        </mxCell>
        <mxCell id="ROZJgOX0GMissYNZLgex-8" value="Yes" style="text;html=1;align=center;verticalAlign=middle;resizable=0;points=[];autosize=1;strokeColor=none;fillColor=none;" parent="1" vertex="1">
          <mxGeometry x="414" y="338" width="40" height="30" as="geometry" />
        </mxCell>
        <mxCell id="ROZJgOX0GMissYNZLgex-14" style="edgeStyle=orthogonalEdgeStyle;rounded=0;orthogonalLoop=1;jettySize=auto;html=1;exitX=0.5;exitY=1;exitDx=0;exitDy=0;entryX=0.5;entryY=0;entryDx=0;entryDy=0;" parent="1" edge="1">
          <mxGeometry relative="1" as="geometry">
            <mxPoint x="414" y="1107" as="sourcePoint" />
            <mxPoint x="414" y="1147" as="targetPoint" />
          </mxGeometry>
        </mxCell>
        <mxCell id="ROZJgOX0GMissYNZLgex-41" style="edgeStyle=orthogonalEdgeStyle;rounded=0;orthogonalLoop=1;jettySize=auto;html=1;exitX=1;exitY=0.5;exitDx=0;exitDy=0;entryX=1;entryY=0.5;entryDx=0;entryDy=0;" parent="1" source="ROZJgOX0GMissYNZLgex-9" target="ROZJgOX0GMissYNZLgex-6" edge="1">
          <mxGeometry relative="1" as="geometry">
            <Array as="points">
              <mxPoint x="770" y="967" />
              <mxPoint x="770" y="615" />
            </Array>
          </mxGeometry>
        </mxCell>
        <mxCell id="ROZJgOX0GMissYNZLgex-227" style="edgeStyle=orthogonalEdgeStyle;rounded=0;orthogonalLoop=1;jettySize=auto;html=1;exitX=0.5;exitY=1;exitDx=0;exitDy=0;entryX=0.5;entryY=0;entryDx=0;entryDy=0;" parent="1" source="ROZJgOX0GMissYNZLgex-9" target="ROZJgOX0GMissYNZLgex-226" edge="1">
          <mxGeometry relative="1" as="geometry" />
        </mxCell>
        <mxCell id="ROZJgOX0GMissYNZLgex-9" value="Utilised&amp;nbsp;&lt;div&gt;non-realtime&lt;div&gt;status byte&lt;div&gt;received?&lt;/div&gt;&lt;/div&gt;&lt;/div&gt;" style="rhombus;whiteSpace=wrap;html=1;" parent="1" vertex="1">
          <mxGeometry x="334" y="927" width="160" height="80" as="geometry" />
        </mxCell>
        <mxCell id="ROZJgOX0GMissYNZLgex-11" value="No" style="text;html=1;align=center;verticalAlign=middle;resizable=0;points=[];autosize=1;strokeColor=none;fillColor=none;" parent="1" vertex="1">
          <mxGeometry x="485" y="940" width="40" height="30" as="geometry" />
        </mxCell>
        <mxCell id="ROZJgOX0GMissYNZLgex-18" style="edgeStyle=orthogonalEdgeStyle;rounded=0;orthogonalLoop=1;jettySize=auto;html=1;exitX=1;exitY=0.5;exitDx=0;exitDy=0;entryX=0.5;entryY=0;entryDx=0;entryDy=0;" parent="1" source="ROZJgOX0GMissYNZLgex-16" target="ROZJgOX0GMissYNZLgex-17" edge="1">
          <mxGeometry relative="1" as="geometry" />
        </mxCell>
        <mxCell id="ROZJgOX0GMissYNZLgex-16" value="PC Nibble?" style="rhombus;whiteSpace=wrap;html=1;" parent="1" vertex="1">
          <mxGeometry x="334" y="1147" width="160" height="80" as="geometry" />
        </mxCell>
        <mxCell id="ROZJgOX0GMissYNZLgex-17" value="CC Nibble?" style="rhombus;whiteSpace=wrap;html=1;" parent="1" vertex="1">
          <mxGeometry x="494" y="1217" width="160" height="80" as="geometry" />
        </mxCell>
        <mxCell id="ROZJgOX0GMissYNZLgex-19" value="No" style="text;html=1;align=center;verticalAlign=middle;resizable=0;points=[];autosize=1;strokeColor=none;fillColor=none;" parent="1" vertex="1">
          <mxGeometry x="480" y="1157" width="40" height="30" as="geometry" />
        </mxCell>
        <mxCell id="ROZJgOX0GMissYNZLgex-21" style="edgeStyle=orthogonalEdgeStyle;rounded=0;orthogonalLoop=1;jettySize=auto;html=1;entryX=0.5;entryY=0;entryDx=0;entryDy=0;" parent="1" source="ROZJgOX0GMissYNZLgex-16" edge="1">
          <mxGeometry relative="1" as="geometry">
            <mxPoint x="414" y="1229" as="sourcePoint" />
            <mxPoint x="414" y="1269" as="targetPoint" />
          </mxGeometry>
        </mxCell>
        <mxCell id="ROZJgOX0GMissYNZLgex-22" value="Yes" style="text;html=1;align=center;verticalAlign=middle;resizable=0;points=[];autosize=1;strokeColor=none;fillColor=none;" parent="1" vertex="1">
          <mxGeometry x="410" y="1227" width="40" height="30" as="geometry" />
        </mxCell>
        <mxCell id="ROZJgOX0GMissYNZLgex-56" style="edgeStyle=orthogonalEdgeStyle;rounded=0;orthogonalLoop=1;jettySize=auto;html=1;exitX=1;exitY=0.5;exitDx=0;exitDy=0;" parent="1" source="ROZJgOX0GMissYNZLgex-23" edge="1">
          <mxGeometry relative="1" as="geometry">
            <mxPoint x="474" y="615" as="targetPoint" />
            <Array as="points">
              <mxPoint x="900" y="1327" />
              <mxPoint x="900" y="615" />
            </Array>
          </mxGeometry>
        </mxCell>
        <mxCell id="ROZJgOX0GMissYNZLgex-89" style="edgeStyle=orthogonalEdgeStyle;rounded=0;orthogonalLoop=1;jettySize=auto;html=1;exitX=0.5;exitY=1;exitDx=0;exitDy=0;entryX=0.5;entryY=0;entryDx=0;entryDy=0;" parent="1" source="ROZJgOX0GMissYNZLgex-23" target="ROZJgOX0GMissYNZLgex-88" edge="1">
          <mxGeometry relative="1" as="geometry" />
        </mxCell>
        <mxCell id="ROZJgOX0GMissYNZLgex-23" value="Sysex&lt;div&gt;start?&lt;/div&gt;" style="rhombus;whiteSpace=wrap;html=1;" parent="1" vertex="1">
          <mxGeometry x="654" y="1287" width="160" height="80" as="geometry" />
        </mxCell>
        <mxCell id="ROZJgOX0GMissYNZLgex-24" style="edgeStyle=orthogonalEdgeStyle;rounded=0;orthogonalLoop=1;jettySize=auto;html=1;exitX=1;exitY=0.5;exitDx=0;exitDy=0;entryX=0.5;entryY=0;entryDx=0;entryDy=0;" parent="1" edge="1">
          <mxGeometry relative="1" as="geometry">
            <mxPoint x="654" y="1257" as="sourcePoint" />
            <mxPoint x="734" y="1287" as="targetPoint" />
          </mxGeometry>
        </mxCell>
        <mxCell id="ROZJgOX0GMissYNZLgex-25" value="No" style="text;html=1;align=center;verticalAlign=middle;resizable=0;points=[];autosize=1;strokeColor=none;fillColor=none;" parent="1" vertex="1">
          <mxGeometry x="640" y="1227" width="40" height="30" as="geometry" />
        </mxCell>
        <mxCell id="ROZJgOX0GMissYNZLgex-27" value="No" style="text;html=1;align=center;verticalAlign=middle;resizable=0;points=[];autosize=1;strokeColor=none;fillColor=none;" parent="1" vertex="1">
          <mxGeometry x="474" y="270" width="40" height="30" as="geometry" />
        </mxCell>
        <mxCell id="ROZJgOX0GMissYNZLgex-39" style="edgeStyle=orthogonalEdgeStyle;rounded=0;orthogonalLoop=1;jettySize=auto;html=1;exitX=1;exitY=0.5;exitDx=0;exitDy=0;entryX=0;entryY=0.5;entryDx=0;entryDy=0;" parent="1" source="ROZJgOX0GMissYNZLgex-28" target="ROZJgOX0GMissYNZLgex-38" edge="1">
          <mxGeometry relative="1" as="geometry" />
        </mxCell>
        <mxCell id="ROZJgOX0GMissYNZLgex-228" style="edgeStyle=orthogonalEdgeStyle;rounded=0;orthogonalLoop=1;jettySize=auto;html=1;exitX=0.5;exitY=1;exitDx=0;exitDy=0;entryX=0.5;entryY=0;entryDx=0;entryDy=0;" parent="1" source="ROZJgOX0GMissYNZLgex-28" target="ROZJgOX0GMissYNZLgex-9" edge="1">
          <mxGeometry relative="1" as="geometry" />
        </mxCell>
        <mxCell id="ROZJgOX0GMissYNZLgex-28" value="Realtime status byte?" style="rhombus;whiteSpace=wrap;html=1;" parent="1" vertex="1">
          <mxGeometry x="334" y="807" width="160" height="80" as="geometry" />
        </mxCell>
        <mxCell id="ROZJgOX0GMissYNZLgex-34" style="edgeStyle=orthogonalEdgeStyle;rounded=0;orthogonalLoop=1;jettySize=auto;html=1;exitX=1;exitY=0.5;exitDx=0;exitDy=0;entryX=1;entryY=0.5;entryDx=0;entryDy=0;" parent="1" source="ROZJgOX0GMissYNZLgex-30" target="ROZJgOX0GMissYNZLgex-6" edge="1">
          <mxGeometry relative="1" as="geometry" />
        </mxCell>
        <mxCell id="ROZJgOX0GMissYNZLgex-157" style="edgeStyle=orthogonalEdgeStyle;rounded=0;orthogonalLoop=1;jettySize=auto;html=1;exitX=0.5;exitY=1;exitDx=0;exitDy=0;entryX=0.5;entryY=0;entryDx=0;entryDy=0;" parent="1" source="ROZJgOX0GMissYNZLgex-30" edge="1">
          <mxGeometry relative="1" as="geometry">
            <mxPoint x="414" y="807" as="targetPoint" />
          </mxGeometry>
        </mxCell>
        <mxCell id="ROZJgOX0GMissYNZLgex-30" value="Byte received?" style="rhombus;whiteSpace=wrap;html=1;" parent="1" vertex="1">
          <mxGeometry x="334" y="685" width="160" height="80" as="geometry" />
        </mxCell>
        <mxCell id="ROZJgOX0GMissYNZLgex-35" value="No" style="text;html=1;align=center;verticalAlign=middle;resizable=0;points=[];autosize=1;strokeColor=none;fillColor=none;" parent="1" vertex="1">
          <mxGeometry x="474" y="695" width="40" height="30" as="geometry" />
        </mxCell>
        <mxCell id="ROZJgOX0GMissYNZLgex-37" value="No" style="text;html=1;align=center;verticalAlign=middle;resizable=0;points=[];autosize=1;strokeColor=none;fillColor=none;" parent="1" vertex="1">
          <mxGeometry x="414" y="887" width="40" height="30" as="geometry" />
        </mxCell>
        <mxCell id="ROZJgOX0GMissYNZLgex-159" style="edgeStyle=orthogonalEdgeStyle;rounded=0;orthogonalLoop=1;jettySize=auto;html=1;exitX=0.5;exitY=0;exitDx=0;exitDy=0;entryX=1;entryY=0.5;entryDx=0;entryDy=0;" parent="1" source="ROZJgOX0GMissYNZLgex-38" target="ROZJgOX0GMissYNZLgex-6" edge="1">
          <mxGeometry relative="1" as="geometry">
            <mxPoint x="635" y="780" as="targetPoint" />
            <Array as="points">
              <mxPoint x="635" y="615" />
            </Array>
          </mxGeometry>
        </mxCell>
        <mxCell id="ROZJgOX0GMissYNZLgex-38" value="Process realtime&lt;div&gt;byte&lt;/div&gt;" style="rounded=0;whiteSpace=wrap;html=1;" parent="1" vertex="1">
          <mxGeometry x="575" y="817" width="120" height="60" as="geometry" />
        </mxCell>
        <mxCell id="ROZJgOX0GMissYNZLgex-40" value="Yes" style="text;html=1;align=center;verticalAlign=middle;resizable=0;points=[];autosize=1;strokeColor=none;fillColor=none;" parent="1" vertex="1">
          <mxGeometry x="480" y="817" width="40" height="30" as="geometry" />
        </mxCell>
        <mxCell id="ROZJgOX0GMissYNZLgex-52" style="edgeStyle=orthogonalEdgeStyle;rounded=0;orthogonalLoop=1;jettySize=auto;html=1;exitX=0.5;exitY=1;exitDx=0;exitDy=0;entryX=0.5;entryY=0;entryDx=0;entryDy=0;" parent="1" source="ROZJgOX0GMissYNZLgex-43" target="ROZJgOX0GMissYNZLgex-50" edge="1">
          <mxGeometry relative="1" as="geometry" />
        </mxCell>
        <mxCell id="ROZJgOX0GMissYNZLgex-43" value="Store running status" style="rounded=0;whiteSpace=wrap;html=1;" parent="1" vertex="1">
          <mxGeometry x="354" y="1267" width="120" height="60" as="geometry" />
        </mxCell>
        <mxCell id="ROZJgOX0GMissYNZLgex-44" style="edgeStyle=orthogonalEdgeStyle;rounded=0;orthogonalLoop=1;jettySize=auto;html=1;entryX=0.5;entryY=0;entryDx=0;entryDy=0;" parent="1" edge="1">
          <mxGeometry relative="1" as="geometry">
            <mxPoint x="574" y="1297" as="sourcePoint" />
            <mxPoint x="574" y="1339" as="targetPoint" />
          </mxGeometry>
        </mxCell>
        <mxCell id="ROZJgOX0GMissYNZLgex-45" value="Yes" style="text;html=1;align=center;verticalAlign=middle;resizable=0;points=[];autosize=1;strokeColor=none;fillColor=none;" parent="1" vertex="1">
          <mxGeometry x="570" y="1297" width="40" height="30" as="geometry" />
        </mxCell>
        <mxCell id="ROZJgOX0GMissYNZLgex-46" value="Store running status" style="rounded=0;whiteSpace=wrap;html=1;" parent="1" vertex="1">
          <mxGeometry x="514" y="1337" width="120" height="60" as="geometry" />
        </mxCell>
        <mxCell id="ROZJgOX0GMissYNZLgex-48" value="Yes" style="text;html=1;align=center;verticalAlign=middle;resizable=0;points=[];autosize=1;strokeColor=none;fillColor=none;" parent="1" vertex="1">
          <mxGeometry x="735" y="1362" width="40" height="30" as="geometry" />
        </mxCell>
        <mxCell id="ROZJgOX0GMissYNZLgex-58" style="edgeStyle=orthogonalEdgeStyle;rounded=0;orthogonalLoop=1;jettySize=auto;html=1;exitX=0;exitY=0.5;exitDx=0;exitDy=0;entryX=1;entryY=0.5;entryDx=0;entryDy=0;" parent="1" source="ROZJgOX0GMissYNZLgex-50" target="ROZJgOX0GMissYNZLgex-55" edge="1">
          <mxGeometry relative="1" as="geometry" />
        </mxCell>
        <mxCell id="ROZJgOX0GMissYNZLgex-50" value="Received on&amp;nbsp;&lt;div&gt;Basic Channel?&lt;/div&gt;" style="rhombus;whiteSpace=wrap;html=1;" parent="1" vertex="1">
          <mxGeometry x="334" y="1367" width="160" height="80" as="geometry" />
        </mxCell>
        <mxCell id="ROZJgOX0GMissYNZLgex-53" value="Yes" style="text;html=1;align=center;verticalAlign=middle;resizable=0;points=[];autosize=1;strokeColor=none;fillColor=none;" parent="1" vertex="1">
          <mxGeometry x="414" y="1447" width="40" height="30" as="geometry" />
        </mxCell>
        <mxCell id="ROZJgOX0GMissYNZLgex-54" value="No" style="text;html=1;align=center;verticalAlign=middle;resizable=0;points=[];autosize=1;strokeColor=none;fillColor=none;" parent="1" vertex="1">
          <mxGeometry x="294" y="1376" width="40" height="30" as="geometry" />
        </mxCell>
        <mxCell id="ROZJgOX0GMissYNZLgex-63" style="edgeStyle=orthogonalEdgeStyle;rounded=0;orthogonalLoop=1;jettySize=auto;html=1;exitX=0.5;exitY=1;exitDx=0;exitDy=0;entryX=0.5;entryY=0;entryDx=0;entryDy=0;" parent="1" source="ROZJgOX0GMissYNZLgex-55" edge="1">
          <mxGeometry relative="1" as="geometry">
            <mxPoint x="210" y="1487" as="targetPoint" />
          </mxGeometry>
        </mxCell>
        <mxCell id="ROZJgOX0GMissYNZLgex-65" style="edgeStyle=orthogonalEdgeStyle;rounded=0;orthogonalLoop=1;jettySize=auto;html=1;exitX=0;exitY=0.5;exitDx=0;exitDy=0;entryX=0;entryY=0.5;entryDx=0;entryDy=0;" parent="1" source="ROZJgOX0GMissYNZLgex-55" target="ROZJgOX0GMissYNZLgex-6" edge="1">
          <mxGeometry relative="1" as="geometry">
            <Array as="points">
              <mxPoint x="100" y="1407" />
              <mxPoint x="100" y="615" />
            </Array>
          </mxGeometry>
        </mxCell>
        <mxCell id="ROZJgOX0GMissYNZLgex-55" value="OMNI on?" style="rhombus;whiteSpace=wrap;html=1;" parent="1" vertex="1">
          <mxGeometry x="130" y="1367" width="160" height="80" as="geometry" />
        </mxCell>
        <mxCell id="ROZJgOX0GMissYNZLgex-57" value="No" style="text;html=1;align=center;verticalAlign=middle;resizable=0;points=[];autosize=1;strokeColor=none;fillColor=none;" parent="1" vertex="1">
          <mxGeometry x="800" y="1297" width="40" height="30" as="geometry" />
        </mxCell>
        <mxCell id="ROZJgOX0GMissYNZLgex-60" style="edgeStyle=orthogonalEdgeStyle;rounded=0;orthogonalLoop=1;jettySize=auto;html=1;exitX=0.5;exitY=1;exitDx=0;exitDy=0;entryX=0.5;entryY=0;entryDx=0;entryDy=0;" parent="1" target="ROZJgOX0GMissYNZLgex-61" edge="1">
          <mxGeometry relative="1" as="geometry">
            <mxPoint x="574" y="1397" as="sourcePoint" />
          </mxGeometry>
        </mxCell>
        <mxCell id="ROZJgOX0GMissYNZLgex-71" style="edgeStyle=orthogonalEdgeStyle;rounded=0;orthogonalLoop=1;jettySize=auto;html=1;exitX=0.5;exitY=1;exitDx=0;exitDy=0;entryX=0.5;entryY=0;entryDx=0;entryDy=0;" parent="1" source="ROZJgOX0GMissYNZLgex-61" target="ROZJgOX0GMissYNZLgex-70" edge="1">
          <mxGeometry relative="1" as="geometry" />
        </mxCell>
        <mxCell id="ROZJgOX0GMissYNZLgex-738" style="edgeStyle=orthogonalEdgeStyle;rounded=0;orthogonalLoop=1;jettySize=auto;html=1;exitX=1;exitY=0.5;exitDx=0;exitDy=0;entryX=1;entryY=0.5;entryDx=0;entryDy=0;jumpStyle=arc;" parent="1" source="ROZJgOX0GMissYNZLgex-61" target="ROZJgOX0GMissYNZLgex-69" edge="1">
          <mxGeometry relative="1" as="geometry" />
        </mxCell>
        <mxCell id="ROZJgOX0GMissYNZLgex-61" value="Received on&amp;nbsp;&lt;div&gt;Basic Channel?&lt;/div&gt;" style="rhombus;whiteSpace=wrap;html=1;" parent="1" vertex="1">
          <mxGeometry x="494" y="1557" width="160" height="80" as="geometry" />
        </mxCell>
        <mxCell id="ROZJgOX0GMissYNZLgex-64" value="Yes" style="text;html=1;align=center;verticalAlign=middle;resizable=0;points=[];autosize=1;strokeColor=none;fillColor=none;" parent="1" vertex="1">
          <mxGeometry x="210" y="1447" width="40" height="30" as="geometry" />
        </mxCell>
        <mxCell id="ROZJgOX0GMissYNZLgex-66" value="No" style="text;html=1;align=center;verticalAlign=middle;resizable=0;points=[];autosize=1;strokeColor=none;fillColor=none;" parent="1" vertex="1">
          <mxGeometry x="100" y="1377" width="40" height="30" as="geometry" />
        </mxCell>
        <mxCell id="ROZJgOX0GMissYNZLgex-126" style="edgeStyle=orthogonalEdgeStyle;rounded=0;orthogonalLoop=1;jettySize=auto;html=1;exitX=0.5;exitY=1;exitDx=0;exitDy=0;" parent="1" source="ROZJgOX0GMissYNZLgex-67" edge="1">
          <mxGeometry relative="1" as="geometry">
            <mxPoint x="210" y="1827" as="targetPoint" />
          </mxGeometry>
        </mxCell>
        <mxCell id="ROZJgOX0GMissYNZLgex-67" value="Active status byte being serviced" style="rounded=0;whiteSpace=wrap;html=1;" parent="1" vertex="1">
          <mxGeometry x="150" y="1487" width="120" height="60" as="geometry" />
        </mxCell>
        <mxCell id="ROZJgOX0GMissYNZLgex-68" style="edgeStyle=orthogonalEdgeStyle;rounded=0;orthogonalLoop=1;jettySize=auto;html=1;exitX=0.5;exitY=1;exitDx=0;exitDy=0;entryX=0.5;entryY=0;entryDx=0;entryDy=0;" parent="1" edge="1">
          <mxGeometry relative="1" as="geometry">
            <mxPoint x="414" y="1447" as="sourcePoint" />
            <mxPoint x="414" y="1487" as="targetPoint" />
          </mxGeometry>
        </mxCell>
        <mxCell id="ROZJgOX0GMissYNZLgex-127" style="edgeStyle=orthogonalEdgeStyle;rounded=0;orthogonalLoop=1;jettySize=auto;html=1;exitX=0.5;exitY=1;exitDx=0;exitDy=0;" parent="1" source="ROZJgOX0GMissYNZLgex-69" edge="1">
          <mxGeometry relative="1" as="geometry">
            <mxPoint x="413.79999999999995" y="1827" as="targetPoint" />
          </mxGeometry>
        </mxCell>
        <mxCell id="ROZJgOX0GMissYNZLgex-69" value="Active status byte being serviced" style="rounded=0;whiteSpace=wrap;html=1;" parent="1" vertex="1">
          <mxGeometry x="354" y="1487" width="120" height="60" as="geometry" />
        </mxCell>
        <mxCell id="ROZJgOX0GMissYNZLgex-739" style="edgeStyle=orthogonalEdgeStyle;rounded=0;orthogonalLoop=1;jettySize=auto;html=1;exitX=1;exitY=0.5;exitDx=0;exitDy=0;" parent="1" source="ROZJgOX0GMissYNZLgex-70" edge="1">
          <mxGeometry relative="1" as="geometry">
            <mxPoint x="675" y="1595" as="targetPoint" />
          </mxGeometry>
        </mxCell>
        <mxCell id="ROZJgOX0GMissYNZLgex-740" style="edgeStyle=orthogonalEdgeStyle;rounded=0;orthogonalLoop=1;jettySize=auto;html=1;exitX=0.5;exitY=1;exitDx=0;exitDy=0;" parent="1" source="ROZJgOX0GMissYNZLgex-70" edge="1">
          <mxGeometry relative="1" as="geometry">
            <mxPoint x="900" y="1330" as="targetPoint" />
          </mxGeometry>
        </mxCell>
        <mxCell id="ROZJgOX0GMissYNZLgex-70" value="OMNI on?" style="rhombus;whiteSpace=wrap;html=1;" parent="1" vertex="1">
          <mxGeometry x="494" y="1677" width="160" height="80" as="geometry" />
        </mxCell>
        <mxCell id="ROZJgOX0GMissYNZLgex-72" value="No" style="text;html=1;align=center;verticalAlign=middle;resizable=0;points=[];autosize=1;strokeColor=none;fillColor=none;" parent="1" vertex="1">
          <mxGeometry x="570" y="1632" width="40" height="30" as="geometry" />
        </mxCell>
        <mxCell id="ROZJgOX0GMissYNZLgex-174" style="edgeStyle=orthogonalEdgeStyle;rounded=0;orthogonalLoop=1;jettySize=auto;html=1;exitX=0.5;exitY=1;exitDx=0;exitDy=0;entryX=0.5;entryY=0;entryDx=0;entryDy=0;" parent="1" source="ROZJgOX0GMissYNZLgex-77" target="ROZJgOX0GMissYNZLgex-173" edge="1">
          <mxGeometry relative="1" as="geometry" />
        </mxCell>
        <mxCell id="ROZJgOX0GMissYNZLgex-197" style="edgeStyle=orthogonalEdgeStyle;rounded=0;orthogonalLoop=1;jettySize=auto;html=1;exitX=1;exitY=0.5;exitDx=0;exitDy=0;entryX=0;entryY=0.5;entryDx=0;entryDy=0;" parent="1" source="ROZJgOX0GMissYNZLgex-77" target="ROZJgOX0GMissYNZLgex-119" edge="1">
          <mxGeometry relative="1" as="geometry" />
        </mxCell>
        <mxCell id="ROZJgOX0GMissYNZLgex-77" value="Active status byte&lt;div&gt;being serviced?&lt;/div&gt;" style="rhombus;whiteSpace=wrap;html=1;" parent="1" vertex="1">
          <mxGeometry x="334" y="380" width="160" height="80" as="geometry" />
        </mxCell>
        <mxCell id="ROZJgOX0GMissYNZLgex-90" style="edgeStyle=orthogonalEdgeStyle;rounded=0;orthogonalLoop=1;jettySize=auto;html=1;exitX=0.5;exitY=1;exitDx=0;exitDy=0;jumpStyle=none;entryX=0;entryY=0.5;entryDx=0;entryDy=0;" parent="1" source="ROZJgOX0GMissYNZLgex-88" target="ROZJgOX0GMissYNZLgex-77" edge="1">
          <mxGeometry relative="1" as="geometry">
            <mxPoint x="334.00000000000045" y="505.0000000000002" as="targetPoint" />
            <Array as="points">
              <mxPoint x="734" y="1827" />
              <mxPoint x="70" y="1827" />
              <mxPoint x="70" y="420" />
            </Array>
          </mxGeometry>
        </mxCell>
        <mxCell id="ROZJgOX0GMissYNZLgex-88" value="Active status byte being serviced, clear running status buffer" style="rounded=0;whiteSpace=wrap;html=1;" parent="1" vertex="1">
          <mxGeometry x="674" y="1407" width="120" height="60" as="geometry" />
        </mxCell>
        <mxCell id="ROZJgOX0GMissYNZLgex-95" value="Yes" style="text;html=1;align=center;verticalAlign=middle;resizable=0;points=[];autosize=1;strokeColor=none;fillColor=none;" parent="1" vertex="1">
          <mxGeometry x="634" y="1687" width="40" height="30" as="geometry" />
        </mxCell>
        <mxCell id="ROZJgOX0GMissYNZLgex-96" value="No" style="text;html=1;align=center;verticalAlign=middle;resizable=0;points=[];autosize=1;strokeColor=none;fillColor=none;" parent="1" vertex="1">
          <mxGeometry x="585" y="1740" width="35" height="30" as="geometry" />
        </mxCell>
        <mxCell id="ROZJgOX0GMissYNZLgex-98" value="Yes" style="text;html=1;align=center;verticalAlign=middle;resizable=0;points=[];autosize=1;strokeColor=none;fillColor=none;" parent="1" vertex="1">
          <mxGeometry x="634" y="1565" width="40" height="30" as="geometry" />
        </mxCell>
        <mxCell id="ROZJgOX0GMissYNZLgex-105" value="Yes" style="text;html=1;align=center;verticalAlign=middle;resizable=0;points=[];autosize=1;strokeColor=none;fillColor=none;" parent="1" vertex="1">
          <mxGeometry x="474" y="380" width="40" height="30" as="geometry" />
        </mxCell>
        <mxCell id="ROZJgOX0GMissYNZLgex-113" style="edgeStyle=orthogonalEdgeStyle;rounded=0;orthogonalLoop=1;jettySize=auto;html=1;exitX=1;exitY=0.5;exitDx=0;exitDy=0;entryX=0;entryY=0.5;entryDx=0;entryDy=0;" parent="1" source="ROZJgOX0GMissYNZLgex-110" target="ROZJgOX0GMissYNZLgex-112" edge="1">
          <mxGeometry relative="1" as="geometry" />
        </mxCell>
        <mxCell id="ROZJgOX0GMissYNZLgex-110" value="Wait for byte" style="rounded=0;whiteSpace=wrap;html=1;" parent="1" vertex="1">
          <mxGeometry x="1515" y="362" width="120" height="60" as="geometry" />
        </mxCell>
        <mxCell id="ROZJgOX0GMissYNZLgex-142" style="edgeStyle=orthogonalEdgeStyle;rounded=0;orthogonalLoop=1;jettySize=auto;html=1;exitX=0.5;exitY=0;exitDx=0;exitDy=0;entryX=0.5;entryY=1;entryDx=0;entryDy=0;" parent="1" source="ROZJgOX0GMissYNZLgex-112" target="ROZJgOX0GMissYNZLgex-141" edge="1">
          <mxGeometry relative="1" as="geometry" />
        </mxCell>
        <mxCell id="ROZJgOX0GMissYNZLgex-147" style="edgeStyle=orthogonalEdgeStyle;rounded=0;orthogonalLoop=1;jettySize=auto;html=1;exitX=0.5;exitY=1;exitDx=0;exitDy=0;entryX=0.5;entryY=0;entryDx=0;entryDy=0;" parent="1" source="ROZJgOX0GMissYNZLgex-112" target="ROZJgOX0GMissYNZLgex-130" edge="1">
          <mxGeometry relative="1" as="geometry" />
        </mxCell>
        <mxCell id="ROZJgOX0GMissYNZLgex-112" value="Byte received?" style="rhombus;whiteSpace=wrap;html=1;" parent="1" vertex="1">
          <mxGeometry x="1680" y="352" width="160" height="80" as="geometry" />
        </mxCell>
        <mxCell id="ROZJgOX0GMissYNZLgex-115" value="Yes" style="text;html=1;align=center;verticalAlign=middle;resizable=0;points=[];autosize=1;strokeColor=none;fillColor=none;" parent="1" vertex="1">
          <mxGeometry x="1757.5" y="430" width="40" height="30" as="geometry" />
        </mxCell>
        <mxCell id="ROZJgOX0GMissYNZLgex-120" style="edgeStyle=orthogonalEdgeStyle;rounded=0;orthogonalLoop=1;jettySize=auto;html=1;exitX=1;exitY=0.5;exitDx=0;exitDy=0;entryX=0;entryY=0.5;entryDx=0;entryDy=0;" parent="1" source="ROZJgOX0GMissYNZLgex-119" target="ROZJgOX0GMissYNZLgex-110" edge="1">
          <mxGeometry relative="1" as="geometry" />
        </mxCell>
        <mxCell id="ROZJgOX0GMissYNZLgex-133" style="edgeStyle=orthogonalEdgeStyle;rounded=0;orthogonalLoop=1;jettySize=auto;html=1;exitX=0.5;exitY=1;exitDx=0;exitDy=0;entryX=0.5;entryY=0;entryDx=0;entryDy=0;" parent="1" source="ROZJgOX0GMissYNZLgex-119" target="ROZJgOX0GMissYNZLgex-129" edge="1">
          <mxGeometry relative="1" as="geometry" />
        </mxCell>
        <mxCell id="ROZJgOX0GMissYNZLgex-119" value="Timer is timed out?" style="rhombus;whiteSpace=wrap;html=1;" parent="1" vertex="1">
          <mxGeometry x="1310" y="352" width="160" height="80" as="geometry" />
        </mxCell>
        <mxCell id="ROZJgOX0GMissYNZLgex-121" value="No" style="text;html=1;align=center;verticalAlign=middle;resizable=0;points=[];autosize=1;strokeColor=none;fillColor=none;" parent="1" vertex="1">
          <mxGeometry x="1460" y="362" width="40" height="30" as="geometry" />
        </mxCell>
        <mxCell id="ROZJgOX0GMissYNZLgex-381" style="edgeStyle=orthogonalEdgeStyle;rounded=0;orthogonalLoop=1;jettySize=auto;html=1;exitX=0;exitY=0.5;exitDx=0;exitDy=0;" parent="1" source="ROZJgOX0GMissYNZLgex-129" edge="1">
          <mxGeometry relative="1" as="geometry">
            <mxPoint x="1120" y="1125" as="targetPoint" />
          </mxGeometry>
        </mxCell>
        <mxCell id="ROZJgOX0GMissYNZLgex-129" value="Stop Timer and clear&lt;div&gt;active status byte buffer and data buffer&lt;/div&gt;" style="rounded=0;whiteSpace=wrap;html=1;" parent="1" vertex="1">
          <mxGeometry x="1330" y="472" width="120" height="60" as="geometry" />
        </mxCell>
        <mxCell id="ROZJgOX0GMissYNZLgex-150" style="edgeStyle=orthogonalEdgeStyle;rounded=0;orthogonalLoop=1;jettySize=auto;html=1;exitX=0.5;exitY=1;exitDx=0;exitDy=0;entryX=0.5;entryY=0;entryDx=0;entryDy=0;" parent="1" source="ROZJgOX0GMissYNZLgex-130" edge="1">
          <mxGeometry relative="1" as="geometry">
            <mxPoint x="1760" y="582" as="targetPoint" />
          </mxGeometry>
        </mxCell>
        <mxCell id="ROZJgOX0GMissYNZLgex-161" style="edgeStyle=orthogonalEdgeStyle;rounded=0;orthogonalLoop=1;jettySize=auto;html=1;exitX=0;exitY=0.5;exitDx=0;exitDy=0;entryX=1;entryY=0.5;entryDx=0;entryDy=0;" parent="1" source="ROZJgOX0GMissYNZLgex-130" target="ROZJgOX0GMissYNZLgex-152" edge="1">
          <mxGeometry relative="1" as="geometry" />
        </mxCell>
        <mxCell id="ROZJgOX0GMissYNZLgex-130" value="Realtime status byte?" style="rhombus;whiteSpace=wrap;html=1;" parent="1" vertex="1">
          <mxGeometry x="1680" y="467" width="160" height="80" as="geometry" />
        </mxCell>
        <mxCell id="ROZJgOX0GMissYNZLgex-139" value="Yes" style="text;html=1;align=center;verticalAlign=middle;resizable=0;points=[];autosize=1;strokeColor=none;fillColor=none;" parent="1" vertex="1">
          <mxGeometry x="1390" y="425" width="40" height="30" as="geometry" />
        </mxCell>
        <mxCell id="ROZJgOX0GMissYNZLgex-140" value="No" style="text;html=1;align=center;verticalAlign=middle;resizable=0;points=[];autosize=1;strokeColor=none;fillColor=none;" parent="1" vertex="1">
          <mxGeometry x="1760" y="322" width="35" height="30" as="geometry" />
        </mxCell>
        <mxCell id="ROZJgOX0GMissYNZLgex-143" style="edgeStyle=orthogonalEdgeStyle;rounded=0;orthogonalLoop=1;jettySize=auto;html=1;exitX=0;exitY=0.5;exitDx=0;exitDy=0;entryX=0.5;entryY=0;entryDx=0;entryDy=0;" parent="1" source="ROZJgOX0GMissYNZLgex-141" target="ROZJgOX0GMissYNZLgex-110" edge="1">
          <mxGeometry relative="1" as="geometry" />
        </mxCell>
        <mxCell id="ROZJgOX0GMissYNZLgex-145" style="edgeStyle=orthogonalEdgeStyle;rounded=0;orthogonalLoop=1;jettySize=auto;html=1;exitX=0.5;exitY=0;exitDx=0;exitDy=0;entryX=1;entryY=0.5;entryDx=0;entryDy=0;jumpStyle=arc;" parent="1" source="ROZJgOX0GMissYNZLgex-141" target="ROZJgOX0GMissYNZLgex-129" edge="1">
          <mxGeometry relative="1" as="geometry">
            <Array as="points">
              <mxPoint x="1760" y="212" />
              <mxPoint x="1495" y="212" />
              <mxPoint x="1495" y="502" />
            </Array>
          </mxGeometry>
        </mxCell>
        <mxCell id="ROZJgOX0GMissYNZLgex-141" value="Timer is timed out?" style="rhombus;whiteSpace=wrap;html=1;" parent="1" vertex="1">
          <mxGeometry x="1680" y="232" width="160" height="80" as="geometry" />
        </mxCell>
        <mxCell id="ROZJgOX0GMissYNZLgex-144" value="No" style="text;html=1;align=center;verticalAlign=middle;resizable=0;points=[];autosize=1;strokeColor=none;fillColor=none;" parent="1" vertex="1">
          <mxGeometry x="1645" y="242" width="35" height="30" as="geometry" />
        </mxCell>
        <mxCell id="ROZJgOX0GMissYNZLgex-146" value="Yes" style="text;html=1;align=center;verticalAlign=middle;resizable=0;points=[];autosize=1;strokeColor=none;fillColor=none;" parent="1" vertex="1">
          <mxGeometry x="1731" y="180" width="40" height="30" as="geometry" />
        </mxCell>
        <mxCell id="ROZJgOX0GMissYNZLgex-163" style="edgeStyle=orthogonalEdgeStyle;rounded=0;orthogonalLoop=1;jettySize=auto;html=1;exitX=0.5;exitY=0;exitDx=0;exitDy=0;entryX=0.5;entryY=1;entryDx=0;entryDy=0;" parent="1" source="ROZJgOX0GMissYNZLgex-152" target="ROZJgOX0GMissYNZLgex-162" edge="1">
          <mxGeometry relative="1" as="geometry" />
        </mxCell>
        <mxCell id="ROZJgOX0GMissYNZLgex-152" value="Process Realtime&lt;div&gt;byte&lt;/div&gt;" style="rounded=0;whiteSpace=wrap;html=1;" parent="1" vertex="1">
          <mxGeometry x="1515" y="562" width="120" height="60" as="geometry" />
        </mxCell>
        <mxCell id="ROZJgOX0GMissYNZLgex-153" value="No" style="text;html=1;align=center;verticalAlign=middle;resizable=0;points=[];autosize=1;strokeColor=none;fillColor=none;" parent="1" vertex="1">
          <mxGeometry x="1760" y="542" width="35" height="30" as="geometry" />
        </mxCell>
        <mxCell id="ROZJgOX0GMissYNZLgex-155" value="Yes" style="text;html=1;align=center;verticalAlign=middle;resizable=0;points=[];autosize=1;strokeColor=none;fillColor=none;" parent="1" vertex="1">
          <mxGeometry x="1645" y="477" width="40" height="30" as="geometry" />
        </mxCell>
        <mxCell id="ROZJgOX0GMissYNZLgex-164" style="edgeStyle=orthogonalEdgeStyle;rounded=0;orthogonalLoop=1;jettySize=auto;html=1;exitX=0.5;exitY=0;exitDx=0;exitDy=0;entryX=0.5;entryY=1;entryDx=0;entryDy=0;" parent="1" source="ROZJgOX0GMissYNZLgex-162" target="ROZJgOX0GMissYNZLgex-110" edge="1">
          <mxGeometry relative="1" as="geometry" />
        </mxCell>
        <mxCell id="ROZJgOX0GMissYNZLgex-162" value="Reset Timer" style="rounded=0;whiteSpace=wrap;html=1;" parent="1" vertex="1">
          <mxGeometry x="1515" y="472" width="120" height="60" as="geometry" />
        </mxCell>
        <mxCell id="ROZJgOX0GMissYNZLgex-175" style="edgeStyle=orthogonalEdgeStyle;rounded=0;orthogonalLoop=1;jettySize=auto;html=1;exitX=0.5;exitY=1;exitDx=0;exitDy=0;entryX=0.5;entryY=0;entryDx=0;entryDy=0;" parent="1" source="ROZJgOX0GMissYNZLgex-173" target="ROZJgOX0GMissYNZLgex-6" edge="1">
          <mxGeometry relative="1" as="geometry" />
        </mxCell>
        <mxCell id="ROZJgOX0GMissYNZLgex-219" style="edgeStyle=orthogonalEdgeStyle;rounded=0;orthogonalLoop=1;jettySize=auto;html=1;exitX=1;exitY=0.5;exitDx=0;exitDy=0;entryX=0;entryY=0.5;entryDx=0;entryDy=0;" parent="1" source="ROZJgOX0GMissYNZLgex-173" target="ROZJgOX0GMissYNZLgex-417" edge="1">
          <mxGeometry relative="1" as="geometry">
            <mxPoint x="1099" y="1590" as="targetPoint" />
            <Array as="points">
              <mxPoint x="995" y="522" />
              <mxPoint x="995" y="2062" />
            </Array>
          </mxGeometry>
        </mxCell>
        <mxCell id="ROZJgOX0GMissYNZLgex-173" value="Running Status?" style="rhombus;whiteSpace=wrap;html=1;" parent="1" vertex="1">
          <mxGeometry x="334" y="482" width="160" height="80" as="geometry" />
        </mxCell>
        <mxCell id="ROZJgOX0GMissYNZLgex-176" value="No" style="text;html=1;align=center;verticalAlign=middle;resizable=0;points=[];autosize=1;strokeColor=none;fillColor=none;" parent="1" vertex="1">
          <mxGeometry x="416" y="555" width="35" height="30" as="geometry" />
        </mxCell>
        <mxCell id="ROZJgOX0GMissYNZLgex-177" value="No" style="text;html=1;align=center;verticalAlign=middle;resizable=0;points=[];autosize=1;strokeColor=none;fillColor=none;" parent="1" vertex="1">
          <mxGeometry x="414" y="455" width="35" height="30" as="geometry" />
        </mxCell>
        <mxCell id="ROZJgOX0GMissYNZLgex-226" value="Start Timer" style="rounded=0;whiteSpace=wrap;html=1;" parent="1" vertex="1">
          <mxGeometry x="354" y="1047" width="120" height="60" as="geometry" />
        </mxCell>
        <mxCell id="ROZJgOX0GMissYNZLgex-229" value="Yes" style="text;html=1;align=center;verticalAlign=middle;resizable=0;points=[];autosize=1;strokeColor=none;fillColor=none;" parent="1" vertex="1">
          <mxGeometry x="414" y="1002" width="40" height="30" as="geometry" />
        </mxCell>
        <mxCell id="ROZJgOX0GMissYNZLgex-278" style="edgeStyle=orthogonalEdgeStyle;rounded=0;orthogonalLoop=1;jettySize=auto;html=1;exitX=1;exitY=0.5;exitDx=0;exitDy=0;entryX=0;entryY=0.5;entryDx=0;entryDy=0;" parent="1" source="ROZJgOX0GMissYNZLgex-276" target="ROZJgOX0GMissYNZLgex-277" edge="1">
          <mxGeometry relative="1" as="geometry" />
        </mxCell>
        <mxCell id="ROZJgOX0GMissYNZLgex-331" style="edgeStyle=orthogonalEdgeStyle;rounded=0;orthogonalLoop=1;jettySize=auto;html=1;exitX=0.5;exitY=1;exitDx=0;exitDy=0;entryX=0.5;entryY=0;entryDx=0;entryDy=0;" parent="1" source="ROZJgOX0GMissYNZLgex-276" target="ROZJgOX0GMissYNZLgex-330" edge="1">
          <mxGeometry relative="1" as="geometry" />
        </mxCell>
        <mxCell id="ROZJgOX0GMissYNZLgex-276" value="Data byte?" style="rhombus;whiteSpace=wrap;html=1;" parent="1" vertex="1">
          <mxGeometry x="1680" y="585" width="160" height="80" as="geometry" />
        </mxCell>
        <mxCell id="ROZJgOX0GMissYNZLgex-290" style="edgeStyle=orthogonalEdgeStyle;rounded=0;orthogonalLoop=1;jettySize=auto;html=1;exitX=1;exitY=0.5;exitDx=0;exitDy=0;entryX=0;entryY=0.5;entryDx=0;entryDy=0;" parent="1" source="ROZJgOX0GMissYNZLgex-277" target="ROZJgOX0GMissYNZLgex-288" edge="1">
          <mxGeometry relative="1" as="geometry" />
        </mxCell>
        <mxCell id="ROZJgOX0GMissYNZLgex-731" style="edgeStyle=orthogonalEdgeStyle;rounded=0;orthogonalLoop=1;jettySize=auto;html=1;exitX=0.5;exitY=0;exitDx=0;exitDy=0;entryX=0.5;entryY=1;entryDx=0;entryDy=0;" parent="1" source="ROZJgOX0GMissYNZLgex-277" target="ROZJgOX0GMissYNZLgex-730" edge="1">
          <mxGeometry relative="1" as="geometry" />
        </mxCell>
        <mxCell id="ROZJgOX0GMissYNZLgex-277" value="Utilised non-realtime&amp;nbsp;&lt;div&gt;Status byte (not&amp;nbsp;&lt;/div&gt;&lt;div&gt;inc. Sysex, but inc. Ch Mode&lt;/div&gt;&lt;div&gt;and voice)?&lt;/div&gt;" style="rhombus;whiteSpace=wrap;html=1;" parent="1" vertex="1">
          <mxGeometry x="1880" y="585" width="160" height="80" as="geometry" />
        </mxCell>
        <mxCell id="ROZJgOX0GMissYNZLgex-280" value="No" style="text;html=1;align=center;verticalAlign=middle;resizable=0;points=[];autosize=1;strokeColor=none;fillColor=none;" parent="1" vertex="1">
          <mxGeometry x="1840" y="590" width="35" height="30" as="geometry" />
        </mxCell>
        <mxCell id="ROZJgOX0GMissYNZLgex-282" value="Yes" style="text;html=1;align=center;verticalAlign=middle;resizable=0;points=[];autosize=1;strokeColor=none;fillColor=none;" parent="1" vertex="1">
          <mxGeometry x="1960" y="555" width="40" height="30" as="geometry" />
        </mxCell>
        <mxCell id="ROZJgOX0GMissYNZLgex-532" style="edgeStyle=orthogonalEdgeStyle;rounded=0;orthogonalLoop=1;jettySize=auto;html=1;exitX=0.5;exitY=0;exitDx=0;exitDy=0;entryX=0;entryY=0.5;entryDx=0;entryDy=0;" parent="1" source="ROZJgOX0GMissYNZLgex-283" target="ROZJgOX0GMissYNZLgex-77" edge="1">
          <mxGeometry relative="1" as="geometry">
            <Array as="points">
              <mxPoint x="1960" y="-70" />
              <mxPoint x="170" y="-70" />
              <mxPoint x="170" y="420" />
            </Array>
          </mxGeometry>
        </mxCell>
        <mxCell id="ROZJgOX0GMissYNZLgex-283" value="Reset Timer and data buffer, store active status byte in buffer, update running status" style="rounded=0;whiteSpace=wrap;html=1;" parent="1" vertex="1">
          <mxGeometry x="1900" y="233.5" width="120" height="77" as="geometry" />
        </mxCell>
        <mxCell id="ROZJgOX0GMissYNZLgex-287" value="No" style="text;html=1;align=center;verticalAlign=middle;resizable=0;points=[];autosize=1;strokeColor=none;fillColor=none;" parent="1" vertex="1">
          <mxGeometry x="2035" y="595" width="35" height="30" as="geometry" />
        </mxCell>
        <mxCell id="ROZJgOX0GMissYNZLgex-292" style="edgeStyle=orthogonalEdgeStyle;rounded=0;orthogonalLoop=1;jettySize=auto;html=1;exitX=0.5;exitY=0;exitDx=0;exitDy=0;entryX=0.5;entryY=1;entryDx=0;entryDy=0;" parent="1" source="ROZJgOX0GMissYNZLgex-288" target="ROZJgOX0GMissYNZLgex-291" edge="1">
          <mxGeometry relative="1" as="geometry" />
        </mxCell>
        <mxCell id="ROZJgOX0GMissYNZLgex-643" style="edgeStyle=orthogonalEdgeStyle;rounded=0;orthogonalLoop=1;jettySize=auto;html=1;exitX=1;exitY=0.5;exitDx=0;exitDy=0;entryX=0;entryY=0.5;entryDx=0;entryDy=0;" parent="1" source="ROZJgOX0GMissYNZLgex-288" target="ROZJgOX0GMissYNZLgex-642" edge="1">
          <mxGeometry relative="1" as="geometry" />
        </mxCell>
        <mxCell id="ROZJgOX0GMissYNZLgex-288" value="F4 or F5?" style="rhombus;whiteSpace=wrap;html=1;" parent="1" vertex="1">
          <mxGeometry x="2080" y="585" width="160" height="80" as="geometry" />
        </mxCell>
        <mxCell id="ROZJgOX0GMissYNZLgex-291" value="Reset timer and clear running status" style="rounded=0;whiteSpace=wrap;html=1;" parent="1" vertex="1">
          <mxGeometry x="2100" y="492" width="120" height="60" as="geometry" />
        </mxCell>
        <mxCell id="ROZJgOX0GMissYNZLgex-296" style="edgeStyle=orthogonalEdgeStyle;rounded=0;orthogonalLoop=1;jettySize=auto;html=1;exitX=0.5;exitY=0;exitDx=0;exitDy=0;entryX=0.5;entryY=0;entryDx=0;entryDy=0;jumpStyle=arc;" parent="1" source="ROZJgOX0GMissYNZLgex-291" target="ROZJgOX0GMissYNZLgex-110" edge="1">
          <mxGeometry relative="1" as="geometry">
            <mxPoint x="2160" y="400" as="sourcePoint" />
            <Array as="points">
              <mxPoint x="2160" y="165" />
              <mxPoint x="1575" y="165" />
            </Array>
          </mxGeometry>
        </mxCell>
        <mxCell id="ROZJgOX0GMissYNZLgex-300" style="edgeStyle=orthogonalEdgeStyle;rounded=0;orthogonalLoop=1;jettySize=auto;html=1;entryX=0;entryY=0.5;entryDx=0;entryDy=0;jumpStyle=arc;exitX=0;exitY=0.5;exitDx=0;exitDy=0;" parent="1" source="ROZJgOX0GMissYNZLgex-361" target="ROZJgOX0GMissYNZLgex-77" edge="1">
          <mxGeometry relative="1" as="geometry">
            <mxPoint x="1540" y="1245" as="sourcePoint" />
            <Array as="points">
              <mxPoint x="1120" y="1309" />
              <mxPoint x="1120" y="1125" />
              <mxPoint x="170" y="1125" />
              <mxPoint x="170" y="420" />
            </Array>
          </mxGeometry>
        </mxCell>
        <mxCell id="ROZJgOX0GMissYNZLgex-301" value="Yes" style="text;html=1;align=center;verticalAlign=middle;resizable=0;points=[];autosize=1;strokeColor=none;fillColor=none;" parent="1" vertex="1">
          <mxGeometry x="480" y="495" width="40" height="30" as="geometry" />
        </mxCell>
        <mxCell id="ROZJgOX0GMissYNZLgex-307" style="edgeStyle=orthogonalEdgeStyle;rounded=0;orthogonalLoop=1;jettySize=auto;html=1;exitX=0.5;exitY=1;exitDx=0;exitDy=0;entryX=0.5;entryY=0;entryDx=0;entryDy=0;" parent="1" edge="1">
          <mxGeometry relative="1" as="geometry">
            <mxPoint x="1760" y="1019" as="targetPoint" />
            <mxPoint x="1760" y="979" as="sourcePoint" />
          </mxGeometry>
        </mxCell>
        <mxCell id="ROZJgOX0GMissYNZLgex-308" style="edgeStyle=orthogonalEdgeStyle;rounded=0;orthogonalLoop=1;jettySize=auto;html=1;exitX=0.5;exitY=1;exitDx=0;exitDy=0;entryX=0.5;entryY=0;entryDx=0;entryDy=0;" parent="1" source="ROZJgOX0GMissYNZLgex-309" target="ROZJgOX0GMissYNZLgex-328" edge="1">
          <mxGeometry relative="1" as="geometry" />
        </mxCell>
        <mxCell id="ROZJgOX0GMissYNZLgex-309" value="PC status byte&amp;nbsp;&lt;div&gt;being actively&lt;/div&gt;&lt;div&gt;serviced?&lt;/div&gt;" style="rhombus;whiteSpace=wrap;html=1;" parent="1" vertex="1">
          <mxGeometry x="1680" y="807" width="160" height="80" as="geometry" />
        </mxCell>
        <mxCell id="ROZJgOX0GMissYNZLgex-310" value="CC status byte&amp;nbsp;&lt;div&gt;being actively&lt;/div&gt;&lt;div&gt;serviced?&lt;/div&gt;" style="rhombus;whiteSpace=wrap;html=1;" parent="1" vertex="1">
          <mxGeometry x="1840" y="877" width="160" height="80" as="geometry" />
        </mxCell>
        <mxCell id="ROZJgOX0GMissYNZLgex-311" style="edgeStyle=orthogonalEdgeStyle;rounded=0;orthogonalLoop=1;jettySize=auto;html=1;exitX=1;exitY=0.5;exitDx=0;exitDy=0;entryX=0.5;entryY=0;entryDx=0;entryDy=0;" parent="1" edge="1">
          <mxGeometry relative="1" as="geometry">
            <mxPoint x="1840" y="847" as="sourcePoint" />
            <mxPoint x="1920" y="877" as="targetPoint" />
          </mxGeometry>
        </mxCell>
        <mxCell id="ROZJgOX0GMissYNZLgex-312" value="No" style="text;html=1;align=center;verticalAlign=middle;resizable=0;points=[];autosize=1;strokeColor=none;fillColor=none;" parent="1" vertex="1">
          <mxGeometry x="1830" y="817" width="40" height="30" as="geometry" />
        </mxCell>
        <mxCell id="ROZJgOX0GMissYNZLgex-313" value="Yes" style="text;html=1;align=center;verticalAlign=middle;resizable=0;points=[];autosize=1;strokeColor=none;fillColor=none;" parent="1" vertex="1">
          <mxGeometry x="1725" y="884" width="40" height="30" as="geometry" />
        </mxCell>
        <mxCell id="ROZJgOX0GMissYNZLgex-314" style="edgeStyle=orthogonalEdgeStyle;rounded=0;orthogonalLoop=1;jettySize=auto;html=1;exitX=0.5;exitY=1;exitDx=0;exitDy=0;entryX=0.5;entryY=0;entryDx=0;entryDy=0;" parent="1" source="ROZJgOX0GMissYNZLgex-310" edge="1">
          <mxGeometry relative="1" as="geometry">
            <mxPoint x="1920" y="959" as="sourcePoint" />
            <mxPoint x="1920" y="1002" as="targetPoint" />
          </mxGeometry>
        </mxCell>
        <mxCell id="ROZJgOX0GMissYNZLgex-315" value="Yes" style="text;html=1;align=center;verticalAlign=middle;resizable=0;points=[];autosize=1;strokeColor=none;fillColor=none;" parent="1" vertex="1">
          <mxGeometry x="1880" y="957" width="40" height="30" as="geometry" />
        </mxCell>
        <mxCell id="ROZJgOX0GMissYNZLgex-318" style="edgeStyle=orthogonalEdgeStyle;rounded=0;orthogonalLoop=1;jettySize=auto;html=1;exitX=1;exitY=0.5;exitDx=0;exitDy=0;entryX=0.879;entryY=-0.005;entryDx=0;entryDy=0;jumpStyle=arc;entryPerimeter=0;" parent="1" target="ROZJgOX0GMissYNZLgex-674" edge="1">
          <mxGeometry relative="1" as="geometry">
            <mxPoint x="2000" y="917" as="sourcePoint" />
            <mxPoint x="3180" y="950" as="targetPoint" />
            <Array as="points">
              <mxPoint x="2000" y="918" />
              <mxPoint x="4237" y="918" />
              <mxPoint x="4237" y="975" />
            </Array>
          </mxGeometry>
        </mxCell>
        <mxCell id="ROZJgOX0GMissYNZLgex-319" value="No" style="text;html=1;align=center;verticalAlign=middle;resizable=0;points=[];autosize=1;strokeColor=none;fillColor=none;" parent="1" vertex="1">
          <mxGeometry x="1990" y="887" width="40" height="30" as="geometry" />
        </mxCell>
        <mxCell id="ROZJgOX0GMissYNZLgex-322" value="Yes" style="text;html=1;align=center;verticalAlign=middle;resizable=0;points=[];autosize=1;strokeColor=none;fillColor=none;" parent="1" vertex="1">
          <mxGeometry x="1765" y="775" width="40" height="30" as="geometry" />
        </mxCell>
        <mxCell id="ROZJgOX0GMissYNZLgex-323" style="edgeStyle=orthogonalEdgeStyle;rounded=0;orthogonalLoop=1;jettySize=auto;html=1;exitX=0.5;exitY=1;exitDx=0;exitDy=0;entryX=0.5;entryY=0;entryDx=0;entryDy=0;" parent="1" source="ROZJgOX0GMissYNZLgex-324" edge="1">
          <mxGeometry relative="1" as="geometry">
            <mxPoint x="1760" y="1121" as="targetPoint" />
          </mxGeometry>
        </mxCell>
        <mxCell id="ROZJgOX0GMissYNZLgex-324" value="Store data&lt;div&gt;byte in buffer&lt;/div&gt;" style="rounded=0;whiteSpace=wrap;html=1;" parent="1" vertex="1">
          <mxGeometry x="1700" y="1019" width="120" height="60" as="geometry" />
        </mxCell>
        <mxCell id="ROZJgOX0GMissYNZLgex-326" style="edgeStyle=orthogonalEdgeStyle;rounded=0;orthogonalLoop=1;jettySize=auto;html=1;exitX=0.5;exitY=1;exitDx=0;exitDy=0;entryX=0.5;entryY=0;entryDx=0;entryDy=0;" parent="1" source="ROZJgOX0GMissYNZLgex-327" target="ROZJgOX0GMissYNZLgex-329" edge="1">
          <mxGeometry relative="1" as="geometry" />
        </mxCell>
        <mxCell id="ROZJgOX0GMissYNZLgex-327" value="Store data byte in buffer" style="rounded=0;whiteSpace=wrap;html=1;" parent="1" vertex="1">
          <mxGeometry x="1860" y="1004" width="120" height="60" as="geometry" />
        </mxCell>
        <mxCell id="ROZJgOX0GMissYNZLgex-328" value="Stop Timer" style="rounded=0;whiteSpace=wrap;html=1;" parent="1" vertex="1">
          <mxGeometry x="1700" y="917" width="120" height="60" as="geometry" />
        </mxCell>
        <mxCell id="ROZJgOX0GMissYNZLgex-336" style="edgeStyle=orthogonalEdgeStyle;rounded=0;orthogonalLoop=1;jettySize=auto;html=1;exitX=0.5;exitY=1;exitDx=0;exitDy=0;entryX=0.5;entryY=0;entryDx=0;entryDy=0;jumpStyle=arc;" parent="1" source="ROZJgOX0GMissYNZLgex-329" target="ROZJgOX0GMissYNZLgex-110" edge="1">
          <mxGeometry relative="1" as="geometry">
            <Array as="points">
              <mxPoint x="1920" y="1765" />
              <mxPoint x="3030" y="1765" />
              <mxPoint x="3030" y="115" />
              <mxPoint x="1575" y="115" />
            </Array>
          </mxGeometry>
        </mxCell>
        <mxCell id="ROZJgOX0GMissYNZLgex-329" value="Reset Timer" style="rounded=0;whiteSpace=wrap;html=1;" parent="1" vertex="1">
          <mxGeometry x="1860" y="1102" width="120" height="60" as="geometry" />
        </mxCell>
        <mxCell id="ROZJgOX0GMissYNZLgex-332" style="edgeStyle=orthogonalEdgeStyle;rounded=0;orthogonalLoop=1;jettySize=auto;html=1;exitX=0.5;exitY=1;exitDx=0;exitDy=0;entryX=0.5;entryY=0;entryDx=0;entryDy=0;" parent="1" source="ROZJgOX0GMissYNZLgex-330" target="ROZJgOX0GMissYNZLgex-309" edge="1">
          <mxGeometry relative="1" as="geometry" />
        </mxCell>
        <mxCell id="ROZJgOX0GMissYNZLgex-334" style="edgeStyle=orthogonalEdgeStyle;rounded=0;orthogonalLoop=1;jettySize=auto;html=1;exitX=1;exitY=0.5;exitDx=0;exitDy=0;entryX=0;entryY=0.5;entryDx=0;entryDy=0;" parent="1" source="ROZJgOX0GMissYNZLgex-330" target="ROZJgOX0GMissYNZLgex-333" edge="1">
          <mxGeometry relative="1" as="geometry" />
        </mxCell>
        <mxCell id="ROZJgOX0GMissYNZLgex-330" value="First data byte?" style="rhombus;whiteSpace=wrap;html=1;" parent="1" vertex="1">
          <mxGeometry x="1680" y="695" width="160" height="80" as="geometry" />
        </mxCell>
        <mxCell id="ROZJgOX0GMissYNZLgex-346" style="edgeStyle=orthogonalEdgeStyle;rounded=0;orthogonalLoop=1;jettySize=auto;html=1;exitX=0.5;exitY=1;exitDx=0;exitDy=0;entryX=0.5;entryY=0;entryDx=0;entryDy=0;" parent="1" source="ROZJgOX0GMissYNZLgex-333" target="ROZJgOX0GMissYNZLgex-337" edge="1">
          <mxGeometry relative="1" as="geometry" />
        </mxCell>
        <mxCell id="ROZJgOX0GMissYNZLgex-544" style="edgeStyle=orthogonalEdgeStyle;rounded=0;orthogonalLoop=1;jettySize=auto;html=1;exitX=1;exitY=0.5;exitDx=0;exitDy=0;entryX=0;entryY=0.5;entryDx=0;entryDy=0;" parent="1" source="ROZJgOX0GMissYNZLgex-333" target="ROZJgOX0GMissYNZLgex-543" edge="1">
          <mxGeometry relative="1" as="geometry" />
        </mxCell>
        <mxCell id="ROZJgOX0GMissYNZLgex-333" value="Second data byte?" style="rhombus;whiteSpace=wrap;html=1;" parent="1" vertex="1">
          <mxGeometry x="2280" y="695" width="160" height="80" as="geometry" />
        </mxCell>
        <mxCell id="ROZJgOX0GMissYNZLgex-335" value="No" style="text;html=1;align=center;verticalAlign=middle;resizable=0;points=[];autosize=1;strokeColor=none;fillColor=none;" parent="1" vertex="1">
          <mxGeometry x="1833" y="710" width="35" height="30" as="geometry" />
        </mxCell>
        <mxCell id="ROZJgOX0GMissYNZLgex-373" style="edgeStyle=orthogonalEdgeStyle;rounded=0;orthogonalLoop=1;jettySize=auto;html=1;exitX=0.5;exitY=1;exitDx=0;exitDy=0;entryX=0.5;entryY=0;entryDx=0;entryDy=0;" parent="1" source="ROZJgOX0GMissYNZLgex-337" target="ROZJgOX0GMissYNZLgex-371" edge="1">
          <mxGeometry relative="1" as="geometry" />
        </mxCell>
        <mxCell id="ROZJgOX0GMissYNZLgex-337" value="CC status byte&amp;nbsp;&lt;div&gt;being actively&lt;/div&gt;&lt;div&gt;serviced?&lt;/div&gt;" style="rhombus;whiteSpace=wrap;html=1;" parent="1" vertex="1">
          <mxGeometry x="2280" y="807" width="160" height="80" as="geometry" />
        </mxCell>
        <mxCell id="ROZJgOX0GMissYNZLgex-341" value="Yes" style="text;html=1;align=center;verticalAlign=middle;resizable=0;points=[];autosize=1;strokeColor=none;fillColor=none;" parent="1" vertex="1">
          <mxGeometry x="2320" y="887" width="40" height="30" as="geometry" />
        </mxCell>
        <mxCell id="ROZJgOX0GMissYNZLgex-343" style="edgeStyle=orthogonalEdgeStyle;rounded=0;orthogonalLoop=1;jettySize=auto;html=1;exitX=1;exitY=0.5;exitDx=0;exitDy=0;entryX=0.5;entryY=0;entryDx=0;entryDy=0;jumpStyle=arc;" parent="1" target="ROZJgOX0GMissYNZLgex-674" edge="1">
          <mxGeometry relative="1" as="geometry">
            <mxPoint x="2440" y="847" as="sourcePoint" />
            <mxPoint x="3388" y="881" as="targetPoint" />
          </mxGeometry>
        </mxCell>
        <mxCell id="ROZJgOX0GMissYNZLgex-344" value="No" style="text;html=1;align=center;verticalAlign=middle;resizable=0;points=[];autosize=1;strokeColor=none;fillColor=none;" parent="1" vertex="1">
          <mxGeometry x="2430" y="817" width="40" height="30" as="geometry" />
        </mxCell>
        <mxCell id="ROZJgOX0GMissYNZLgex-347" value="Yes" style="text;html=1;align=center;verticalAlign=middle;resizable=0;points=[];autosize=1;strokeColor=none;fillColor=none;" parent="1" vertex="1">
          <mxGeometry x="2360" y="775" width="40" height="30" as="geometry" />
        </mxCell>
        <mxCell id="ROZJgOX0GMissYNZLgex-352" style="edgeStyle=orthogonalEdgeStyle;rounded=0;orthogonalLoop=1;jettySize=auto;html=1;exitX=0.5;exitY=1;exitDx=0;exitDy=0;entryX=0.5;entryY=0;entryDx=0;entryDy=0;" parent="1" source="ROZJgOX0GMissYNZLgex-350" target="ROZJgOX0GMissYNZLgex-351" edge="1">
          <mxGeometry relative="1" as="geometry" />
        </mxCell>
        <mxCell id="ROZJgOX0GMissYNZLgex-358" style="edgeStyle=orthogonalEdgeStyle;rounded=0;orthogonalLoop=1;jettySize=auto;html=1;exitX=1;exitY=0.5;exitDx=0;exitDy=0;entryX=0;entryY=0.5;entryDx=0;entryDy=0;" parent="1" source="ROZJgOX0GMissYNZLgex-350" edge="1">
          <mxGeometry relative="1" as="geometry">
            <mxPoint x="2500" y="1290.5" as="targetPoint" />
          </mxGeometry>
        </mxCell>
        <mxCell id="ROZJgOX0GMissYNZLgex-350" value="Is the first&lt;div&gt;data byte a utilised CC?&lt;/div&gt;&lt;div&gt;&lt;div&gt;&lt;div&gt;&lt;br&gt;&lt;/div&gt;&lt;/div&gt;&lt;/div&gt;" style="rhombus;whiteSpace=wrap;html=1;" parent="1" vertex="1">
          <mxGeometry x="2280" y="1250.5" width="160" height="80" as="geometry" />
        </mxCell>
        <mxCell id="ROZJgOX0GMissYNZLgex-354" style="edgeStyle=orthogonalEdgeStyle;rounded=0;orthogonalLoop=1;jettySize=auto;html=1;exitX=0.5;exitY=1;exitDx=0;exitDy=0;" parent="1" source="ROZJgOX0GMissYNZLgex-351" edge="1">
          <mxGeometry relative="1" as="geometry">
            <mxPoint x="2359.5714285714284" y="1483.5000000000005" as="targetPoint" />
          </mxGeometry>
        </mxCell>
        <mxCell id="ROZJgOX0GMissYNZLgex-392" style="edgeStyle=orthogonalEdgeStyle;rounded=0;orthogonalLoop=1;jettySize=auto;html=1;exitX=1;exitY=0.5;exitDx=0;exitDy=0;entryX=0;entryY=0.5;entryDx=0;entryDy=0;" parent="1" source="ROZJgOX0GMissYNZLgex-351" edge="1">
          <mxGeometry relative="1" as="geometry">
            <mxPoint x="2501" y="1405.5" as="targetPoint" />
          </mxGeometry>
        </mxCell>
        <mxCell id="ROZJgOX0GMissYNZLgex-351" value="&lt;div&gt;Is the&amp;nbsp;&lt;br&gt;&lt;/div&gt;&lt;div&gt;first&lt;br&gt;&lt;div&gt;data byte a utilised&lt;/div&gt;&lt;div&gt;CH MODE?&lt;/div&gt;&lt;div&gt;&lt;div&gt;&lt;div&gt;&lt;br&gt;&lt;/div&gt;&lt;/div&gt;&lt;/div&gt;&lt;/div&gt;" style="rhombus;whiteSpace=wrap;html=1;" parent="1" vertex="1">
          <mxGeometry x="2280" y="1365.5" width="160" height="80" as="geometry" />
        </mxCell>
        <mxCell id="ROZJgOX0GMissYNZLgex-353" value="No" style="text;html=1;align=center;verticalAlign=middle;resizable=0;points=[];autosize=1;strokeColor=none;fillColor=none;" parent="1" vertex="1">
          <mxGeometry x="2322.5" y="1326.5" width="35" height="30" as="geometry" />
        </mxCell>
        <mxCell id="ROZJgOX0GMissYNZLgex-355" value="No" style="text;html=1;align=center;verticalAlign=middle;resizable=0;points=[];autosize=1;strokeColor=none;fillColor=none;" parent="1" vertex="1">
          <mxGeometry x="2322.5" y="1443.5" width="35" height="30" as="geometry" />
        </mxCell>
        <mxCell id="ROZJgOX0GMissYNZLgex-363" style="edgeStyle=orthogonalEdgeStyle;rounded=0;orthogonalLoop=1;jettySize=auto;html=1;exitX=0.5;exitY=1;exitDx=0;exitDy=0;entryX=0.5;entryY=0;entryDx=0;entryDy=0;" parent="1" source="ROZJgOX0GMissYNZLgex-360" target="ROZJgOX0GMissYNZLgex-361" edge="1">
          <mxGeometry relative="1" as="geometry" />
        </mxCell>
        <mxCell id="ROZJgOX0GMissYNZLgex-366" style="edgeStyle=orthogonalEdgeStyle;rounded=0;orthogonalLoop=1;jettySize=auto;html=1;exitX=0;exitY=0.5;exitDx=0;exitDy=0;entryX=1;entryY=0.5;entryDx=0;entryDy=0;" parent="1" source="ROZJgOX0GMissYNZLgex-360" target="ROZJgOX0GMissYNZLgex-365" edge="1">
          <mxGeometry relative="1" as="geometry" />
        </mxCell>
        <mxCell id="ROZJgOX0GMissYNZLgex-360" value="Is data byte&lt;div&gt;in range?&lt;/div&gt;" style="rhombus;whiteSpace=wrap;html=1;" parent="1" vertex="1">
          <mxGeometry x="1680" y="1120" width="160" height="80" as="geometry" />
        </mxCell>
        <mxCell id="ROZJgOX0GMissYNZLgex-361" value="Select appropriate&lt;div&gt;preset. Clear data buffer and active service buffer, do not clear running status buffer.&amp;nbsp;&lt;/div&gt;" style="rounded=0;whiteSpace=wrap;html=1;" parent="1" vertex="1">
          <mxGeometry x="1700" y="1237" width="120" height="143" as="geometry" />
        </mxCell>
        <mxCell id="ROZJgOX0GMissYNZLgex-368" style="edgeStyle=orthogonalEdgeStyle;rounded=0;orthogonalLoop=1;jettySize=auto;html=1;exitX=0;exitY=0.5;exitDx=0;exitDy=0;" parent="1" source="ROZJgOX0GMissYNZLgex-365" edge="1">
          <mxGeometry relative="1" as="geometry">
            <mxPoint x="1440" y="1310.0000000000005" as="targetPoint" />
          </mxGeometry>
        </mxCell>
        <mxCell id="ROZJgOX0GMissYNZLgex-365" value="Do not select preset. Clear data buffer and active service buffer, do not clear running status buffer." style="rounded=0;whiteSpace=wrap;html=1;" parent="1" vertex="1">
          <mxGeometry x="1510" y="1088.5" width="120" height="143" as="geometry" />
        </mxCell>
        <mxCell id="ROZJgOX0GMissYNZLgex-367" value="No" style="text;html=1;align=center;verticalAlign=middle;resizable=0;points=[];autosize=1;strokeColor=none;fillColor=none;" parent="1" vertex="1">
          <mxGeometry x="1650" y="1132" width="35" height="30" as="geometry" />
        </mxCell>
        <mxCell id="ROZJgOX0GMissYNZLgex-389" style="edgeStyle=orthogonalEdgeStyle;rounded=0;orthogonalLoop=1;jettySize=auto;html=1;exitX=1;exitY=0.5;exitDx=0;exitDy=0;" parent="1" source="ROZJgOX0GMissYNZLgex-369" edge="1">
          <mxGeometry relative="1" as="geometry">
            <mxPoint x="3030" y="1291" as="targetPoint" />
          </mxGeometry>
        </mxCell>
        <mxCell id="ROZJgOX0GMissYNZLgex-369" value="Process and action combined CC&lt;div&gt;status and data bytes, clear data buffer and&lt;/div&gt;&lt;div&gt;status buffer (obvs&lt;/div&gt;&lt;div&gt;don&#39;t clear running status buffer)&lt;/div&gt;" style="rounded=0;whiteSpace=wrap;html=1;" parent="1" vertex="1">
          <mxGeometry x="2501" y="1238.5" width="120" height="104" as="geometry" />
        </mxCell>
        <mxCell id="ROZJgOX0GMissYNZLgex-374" style="edgeStyle=orthogonalEdgeStyle;rounded=0;orthogonalLoop=1;jettySize=auto;html=1;exitX=1;exitY=0.5;exitDx=0;exitDy=0;entryX=0;entryY=0.5;entryDx=0;entryDy=0;" parent="1" source="ROZJgOX0GMissYNZLgex-371" target="ROZJgOX0GMissYNZLgex-372" edge="1">
          <mxGeometry relative="1" as="geometry" />
        </mxCell>
        <mxCell id="ROZJgOX0GMissYNZLgex-376" style="edgeStyle=orthogonalEdgeStyle;rounded=0;orthogonalLoop=1;jettySize=auto;html=1;exitX=0.5;exitY=1;exitDx=0;exitDy=0;entryX=0.5;entryY=0;entryDx=0;entryDy=0;" parent="1" source="ROZJgOX0GMissYNZLgex-371" target="ROZJgOX0GMissYNZLgex-350" edge="1">
          <mxGeometry relative="1" as="geometry" />
        </mxCell>
        <mxCell id="ROZJgOX0GMissYNZLgex-371" value="CC status byte on&amp;nbsp;&lt;div&gt;Basic Channel?&lt;/div&gt;" style="rhombus;whiteSpace=wrap;html=1;" parent="1" vertex="1">
          <mxGeometry x="2280" y="1140" width="160" height="80" as="geometry" />
        </mxCell>
        <mxCell id="ROZJgOX0GMissYNZLgex-379" style="edgeStyle=orthogonalEdgeStyle;rounded=0;orthogonalLoop=1;jettySize=auto;html=1;exitX=1;exitY=0.5;exitDx=0;exitDy=0;entryX=0;entryY=0.5;entryDx=0;entryDy=0;" parent="1" source="ROZJgOX0GMissYNZLgex-372" target="ROZJgOX0GMissYNZLgex-378" edge="1">
          <mxGeometry relative="1" as="geometry" />
        </mxCell>
        <mxCell id="ROZJgOX0GMissYNZLgex-385" style="edgeStyle=orthogonalEdgeStyle;rounded=0;orthogonalLoop=1;jettySize=auto;html=1;exitX=0.5;exitY=0;exitDx=0;exitDy=0;entryX=0;entryY=0.5;entryDx=0;entryDy=0;" parent="1" source="ROZJgOX0GMissYNZLgex-372" target="ROZJgOX0GMissYNZLgex-384" edge="1">
          <mxGeometry relative="1" as="geometry" />
        </mxCell>
        <mxCell id="ROZJgOX0GMissYNZLgex-372" value="OMNI on?" style="rhombus;whiteSpace=wrap;html=1;" parent="1" vertex="1">
          <mxGeometry x="2481" y="1140" width="160" height="80" as="geometry" />
        </mxCell>
        <mxCell id="ROZJgOX0GMissYNZLgex-375" value="No" style="text;html=1;align=center;verticalAlign=middle;resizable=0;points=[];autosize=1;strokeColor=none;fillColor=none;" parent="1" vertex="1">
          <mxGeometry x="2440" y="1155" width="35" height="30" as="geometry" />
        </mxCell>
        <mxCell id="ROZJgOX0GMissYNZLgex-377" value="Yes" style="text;html=1;align=center;verticalAlign=middle;resizable=0;points=[];autosize=1;strokeColor=none;fillColor=none;" parent="1" vertex="1">
          <mxGeometry x="2317.5" y="1217" width="40" height="30" as="geometry" />
        </mxCell>
        <mxCell id="ROZJgOX0GMissYNZLgex-387" style="edgeStyle=orthogonalEdgeStyle;rounded=0;orthogonalLoop=1;jettySize=auto;html=1;exitX=1;exitY=0.5;exitDx=0;exitDy=0;" parent="1" source="ROZJgOX0GMissYNZLgex-378" edge="1">
          <mxGeometry relative="1" as="geometry">
            <mxPoint x="2735" y="680" as="targetPoint" />
            <Array as="points">
              <mxPoint x="2820" y="1179" />
              <mxPoint x="2820" y="680" />
            </Array>
          </mxGeometry>
        </mxCell>
        <mxCell id="ROZJgOX0GMissYNZLgex-378" value="Process and action combined CC&lt;div&gt;status and data byte, clear data buffer and&lt;/div&gt;&lt;div&gt;status buffer (obvs&lt;/div&gt;&lt;div&gt;don&#39;t clear running status buffer)&lt;/div&gt;" style="rounded=0;whiteSpace=wrap;html=1;" parent="1" vertex="1">
          <mxGeometry x="2680" y="1127.5" width="120" height="104" as="geometry" />
        </mxCell>
        <mxCell id="ROZJgOX0GMissYNZLgex-380" value="Yes" style="text;html=1;align=center;verticalAlign=middle;resizable=0;points=[];autosize=1;strokeColor=none;fillColor=none;" parent="1" vertex="1">
          <mxGeometry x="2636" y="1155" width="40" height="30" as="geometry" />
        </mxCell>
        <mxCell id="ROZJgOX0GMissYNZLgex-383" value="No" style="text;html=1;align=center;verticalAlign=middle;resizable=0;points=[];autosize=1;strokeColor=none;fillColor=none;" parent="1" vertex="1">
          <mxGeometry x="2565" y="1110" width="35" height="30" as="geometry" />
        </mxCell>
        <mxCell id="ROZJgOX0GMissYNZLgex-386" style="edgeStyle=orthogonalEdgeStyle;rounded=0;orthogonalLoop=1;jettySize=auto;html=1;exitX=0.5;exitY=0;exitDx=0;exitDy=0;jumpStyle=arc;" parent="1" source="ROZJgOX0GMissYNZLgex-384" edge="1">
          <mxGeometry relative="1" as="geometry">
            <mxPoint x="1120" y="1125" as="targetPoint" />
            <Array as="points">
              <mxPoint x="2736" y="680" />
              <mxPoint x="1205" y="680" />
              <mxPoint x="1205" y="1125" />
            </Array>
          </mxGeometry>
        </mxCell>
        <mxCell id="ROZJgOX0GMissYNZLgex-384" value="Stop Timer and clear&lt;div&gt;active status byte buffer&lt;/div&gt;" style="rounded=0;whiteSpace=wrap;html=1;" parent="1" vertex="1">
          <mxGeometry x="2676" y="1032" width="120" height="60" as="geometry" />
        </mxCell>
        <mxCell id="ROZJgOX0GMissYNZLgex-388" value="Yes" style="text;html=1;align=center;verticalAlign=middle;resizable=0;points=[];autosize=1;strokeColor=none;fillColor=none;" parent="1" vertex="1">
          <mxGeometry x="2437.5" y="1265" width="40" height="30" as="geometry" />
        </mxCell>
        <mxCell id="ROZJgOX0GMissYNZLgex-393" value="Yes" style="text;html=1;align=center;verticalAlign=middle;resizable=0;points=[];autosize=1;strokeColor=none;fillColor=none;" parent="1" vertex="1">
          <mxGeometry x="2437.5" y="1380" width="40" height="30" as="geometry" />
        </mxCell>
        <mxCell id="ROZJgOX0GMissYNZLgex-403" style="edgeStyle=orthogonalEdgeStyle;rounded=0;orthogonalLoop=1;jettySize=auto;html=1;exitX=1;exitY=0.5;exitDx=0;exitDy=0;" parent="1" source="ROZJgOX0GMissYNZLgex-394" edge="1">
          <mxGeometry relative="1" as="geometry">
            <mxPoint x="3030" y="1528.6666666666665" as="targetPoint" />
          </mxGeometry>
        </mxCell>
        <mxCell id="ROZJgOX0GMissYNZLgex-394" value="Process and action combined CC CH MODE&lt;div&gt;status and data bytes, clear all buffers except running status&lt;/div&gt;" style="rounded=0;whiteSpace=wrap;html=1;" parent="1" vertex="1">
          <mxGeometry x="2541" y="1477" width="164" height="104" as="geometry" />
        </mxCell>
        <mxCell id="ROZJgOX0GMissYNZLgex-396" style="edgeStyle=orthogonalEdgeStyle;rounded=0;orthogonalLoop=1;jettySize=auto;html=1;exitX=0.5;exitY=1;exitDx=0;exitDy=0;entryX=0.5;entryY=0;entryDx=0;entryDy=0;" parent="1" source="ROZJgOX0GMissYNZLgex-395" target="ROZJgOX0GMissYNZLgex-394" edge="1">
          <mxGeometry relative="1" as="geometry" />
        </mxCell>
        <mxCell id="ROZJgOX0GMissYNZLgex-401" style="edgeStyle=orthogonalEdgeStyle;rounded=0;orthogonalLoop=1;jettySize=auto;html=1;exitX=1;exitY=0.5;exitDx=0;exitDy=0;entryX=0;entryY=0.5;entryDx=0;entryDy=0;" parent="1" source="ROZJgOX0GMissYNZLgex-395" target="ROZJgOX0GMissYNZLgex-400" edge="1">
          <mxGeometry relative="1" as="geometry" />
        </mxCell>
        <mxCell id="ROZJgOX0GMissYNZLgex-395" value="&lt;div&gt;Is the&amp;nbsp;&lt;br&gt;&lt;/div&gt;&lt;div&gt;second&lt;br&gt;&lt;div&gt;data byte a valid input&lt;/div&gt;&lt;div&gt;for the 1st data byte?&lt;/div&gt;&lt;div&gt;&lt;div&gt;&lt;div&gt;&lt;br&gt;&lt;/div&gt;&lt;/div&gt;&lt;/div&gt;&lt;/div&gt;" style="rhombus;whiteSpace=wrap;html=1;" parent="1" vertex="1">
          <mxGeometry x="2501" y="1365.5" width="244" height="80" as="geometry" />
        </mxCell>
        <mxCell id="ROZJgOX0GMissYNZLgex-397" value="Yes" style="text;html=1;align=center;verticalAlign=middle;resizable=0;points=[];autosize=1;strokeColor=none;fillColor=none;" parent="1" vertex="1">
          <mxGeometry x="2621" y="1440" width="40" height="30" as="geometry" />
        </mxCell>
        <mxCell id="ROZJgOX0GMissYNZLgex-399" value="No" style="text;html=1;align=center;verticalAlign=middle;resizable=0;points=[];autosize=1;strokeColor=none;fillColor=none;" parent="1" vertex="1">
          <mxGeometry x="2740" y="1377" width="35" height="30" as="geometry" />
        </mxCell>
        <mxCell id="ROZJgOX0GMissYNZLgex-402" style="edgeStyle=orthogonalEdgeStyle;rounded=0;orthogonalLoop=1;jettySize=auto;html=1;exitX=1;exitY=0.5;exitDx=0;exitDy=0;" parent="1" source="ROZJgOX0GMissYNZLgex-400" edge="1">
          <mxGeometry relative="1" as="geometry">
            <mxPoint x="3030" y="1405" as="targetPoint" />
          </mxGeometry>
        </mxCell>
        <mxCell id="ROZJgOX0GMissYNZLgex-400" value="Clear all buffers except running status, stop timer" style="rounded=0;whiteSpace=wrap;html=1;" parent="1" vertex="1">
          <mxGeometry x="2790" y="1353" width="164" height="104" as="geometry" />
        </mxCell>
        <mxCell id="ROZJgOX0GMissYNZLgex-405" style="edgeStyle=orthogonalEdgeStyle;rounded=0;orthogonalLoop=1;jettySize=auto;html=1;exitX=0.5;exitY=1;exitDx=0;exitDy=0;" parent="1" source="ROZJgOX0GMissYNZLgex-404" edge="1">
          <mxGeometry relative="1" as="geometry">
            <mxPoint x="3030" y="1640" as="targetPoint" />
            <Array as="points">
              <mxPoint x="2360" y="1640" />
            </Array>
          </mxGeometry>
        </mxCell>
        <mxCell id="ROZJgOX0GMissYNZLgex-404" value="Clear all buffers except running status, stop timer" style="rounded=0;whiteSpace=wrap;html=1;" parent="1" vertex="1">
          <mxGeometry x="2278" y="1485" width="164" height="104" as="geometry" />
        </mxCell>
        <mxCell id="ROZJgOX0GMissYNZLgex-416" style="edgeStyle=orthogonalEdgeStyle;rounded=0;orthogonalLoop=1;jettySize=auto;html=1;exitX=1;exitY=0.5;exitDx=0;exitDy=0;entryX=0;entryY=0.5;entryDx=0;entryDy=0;" parent="1" source="ROZJgOX0GMissYNZLgex-417" target="ROZJgOX0GMissYNZLgex-420" edge="1">
          <mxGeometry relative="1" as="geometry" />
        </mxCell>
        <mxCell id="ROZJgOX0GMissYNZLgex-417" value="Wait for byte" style="rounded=0;whiteSpace=wrap;html=1;" parent="1" vertex="1">
          <mxGeometry x="1040" y="2031.8" width="120" height="60" as="geometry" />
        </mxCell>
        <mxCell id="ROZJgOX0GMissYNZLgex-418" style="edgeStyle=orthogonalEdgeStyle;rounded=0;orthogonalLoop=1;jettySize=auto;html=1;exitX=0.5;exitY=0;exitDx=0;exitDy=0;entryX=0.5;entryY=1;entryDx=0;entryDy=0;" parent="1" source="ROZJgOX0GMissYNZLgex-420" target="ROZJgOX0GMissYNZLgex-427" edge="1">
          <mxGeometry relative="1" as="geometry" />
        </mxCell>
        <mxCell id="ROZJgOX0GMissYNZLgex-419" style="edgeStyle=orthogonalEdgeStyle;rounded=0;orthogonalLoop=1;jettySize=auto;html=1;exitX=0.5;exitY=1;exitDx=0;exitDy=0;entryX=0.5;entryY=0;entryDx=0;entryDy=0;" parent="1" source="ROZJgOX0GMissYNZLgex-420" target="ROZJgOX0GMissYNZLgex-424" edge="1">
          <mxGeometry relative="1" as="geometry" />
        </mxCell>
        <mxCell id="ROZJgOX0GMissYNZLgex-420" value="Byte received?" style="rhombus;whiteSpace=wrap;html=1;" parent="1" vertex="1">
          <mxGeometry x="1205" y="2021.8" width="160" height="80" as="geometry" />
        </mxCell>
        <mxCell id="ROZJgOX0GMissYNZLgex-421" value="Yes" style="text;html=1;align=center;verticalAlign=middle;resizable=0;points=[];autosize=1;strokeColor=none;fillColor=none;" parent="1" vertex="1">
          <mxGeometry x="1282.5" y="2099.8" width="40" height="30" as="geometry" />
        </mxCell>
        <mxCell id="ROZJgOX0GMissYNZLgex-422" style="edgeStyle=orthogonalEdgeStyle;rounded=0;orthogonalLoop=1;jettySize=auto;html=1;exitX=0.5;exitY=1;exitDx=0;exitDy=0;entryX=0.5;entryY=0;entryDx=0;entryDy=0;" parent="1" source="ROZJgOX0GMissYNZLgex-424" edge="1">
          <mxGeometry relative="1" as="geometry">
            <mxPoint x="1285" y="2251.8" as="targetPoint" />
          </mxGeometry>
        </mxCell>
        <mxCell id="ROZJgOX0GMissYNZLgex-423" style="edgeStyle=orthogonalEdgeStyle;rounded=0;orthogonalLoop=1;jettySize=auto;html=1;exitX=0;exitY=0.5;exitDx=0;exitDy=0;entryX=1;entryY=0.5;entryDx=0;entryDy=0;" parent="1" source="ROZJgOX0GMissYNZLgex-424" target="ROZJgOX0GMissYNZLgex-431" edge="1">
          <mxGeometry relative="1" as="geometry" />
        </mxCell>
        <mxCell id="ROZJgOX0GMissYNZLgex-424" value="Realtime status byte?" style="rhombus;whiteSpace=wrap;html=1;" parent="1" vertex="1">
          <mxGeometry x="1205" y="2136.8" width="160" height="80" as="geometry" />
        </mxCell>
        <mxCell id="ROZJgOX0GMissYNZLgex-425" value="No" style="text;html=1;align=center;verticalAlign=middle;resizable=0;points=[];autosize=1;strokeColor=none;fillColor=none;" parent="1" vertex="1">
          <mxGeometry x="1285" y="1991.8" width="35" height="30" as="geometry" />
        </mxCell>
        <mxCell id="ROZJgOX0GMissYNZLgex-426" style="edgeStyle=orthogonalEdgeStyle;rounded=0;orthogonalLoop=1;jettySize=auto;html=1;exitX=0;exitY=0.5;exitDx=0;exitDy=0;entryX=0.5;entryY=0;entryDx=0;entryDy=0;" parent="1" source="ROZJgOX0GMissYNZLgex-427" target="ROZJgOX0GMissYNZLgex-417" edge="1">
          <mxGeometry relative="1" as="geometry" />
        </mxCell>
        <mxCell id="ROZJgOX0GMissYNZLgex-534" style="edgeStyle=orthogonalEdgeStyle;rounded=0;orthogonalLoop=1;jettySize=auto;html=1;exitX=0.5;exitY=0;exitDx=0;exitDy=0;entryX=0.5;entryY=1;entryDx=0;entryDy=0;" parent="1" source="ROZJgOX0GMissYNZLgex-427" target="ROZJgOX0GMissYNZLgex-533" edge="1">
          <mxGeometry relative="1" as="geometry" />
        </mxCell>
        <mxCell id="ROZJgOX0GMissYNZLgex-427" value="Timer is timed out?" style="rhombus;whiteSpace=wrap;html=1;" parent="1" vertex="1">
          <mxGeometry x="1205" y="1901.8" width="160" height="80" as="geometry" />
        </mxCell>
        <mxCell id="ROZJgOX0GMissYNZLgex-428" value="No" style="text;html=1;align=center;verticalAlign=middle;resizable=0;points=[];autosize=1;strokeColor=none;fillColor=none;" parent="1" vertex="1">
          <mxGeometry x="1170" y="1911.8" width="35" height="30" as="geometry" />
        </mxCell>
        <mxCell id="ROZJgOX0GMissYNZLgex-429" value="Yes" style="text;html=1;align=center;verticalAlign=middle;resizable=0;points=[];autosize=1;strokeColor=none;fillColor=none;" parent="1" vertex="1">
          <mxGeometry x="1245" y="1875" width="40" height="30" as="geometry" />
        </mxCell>
        <mxCell id="ROZJgOX0GMissYNZLgex-430" style="edgeStyle=orthogonalEdgeStyle;rounded=0;orthogonalLoop=1;jettySize=auto;html=1;exitX=0.5;exitY=0;exitDx=0;exitDy=0;entryX=0.5;entryY=1;entryDx=0;entryDy=0;" parent="1" source="ROZJgOX0GMissYNZLgex-431" target="ROZJgOX0GMissYNZLgex-435" edge="1">
          <mxGeometry relative="1" as="geometry" />
        </mxCell>
        <mxCell id="ROZJgOX0GMissYNZLgex-431" value="Process Realtime&lt;div&gt;byte&lt;/div&gt;" style="rounded=0;whiteSpace=wrap;html=1;" parent="1" vertex="1">
          <mxGeometry x="1040" y="2231.8" width="120" height="60" as="geometry" />
        </mxCell>
        <mxCell id="ROZJgOX0GMissYNZLgex-432" value="No" style="text;html=1;align=center;verticalAlign=middle;resizable=0;points=[];autosize=1;strokeColor=none;fillColor=none;" parent="1" vertex="1">
          <mxGeometry x="1285" y="2211.8" width="35" height="30" as="geometry" />
        </mxCell>
        <mxCell id="ROZJgOX0GMissYNZLgex-433" value="Yes" style="text;html=1;align=center;verticalAlign=middle;resizable=0;points=[];autosize=1;strokeColor=none;fillColor=none;" parent="1" vertex="1">
          <mxGeometry x="1170" y="2146.8" width="40" height="30" as="geometry" />
        </mxCell>
        <mxCell id="ROZJgOX0GMissYNZLgex-434" style="edgeStyle=orthogonalEdgeStyle;rounded=0;orthogonalLoop=1;jettySize=auto;html=1;exitX=0.5;exitY=0;exitDx=0;exitDy=0;entryX=0.5;entryY=1;entryDx=0;entryDy=0;" parent="1" source="ROZJgOX0GMissYNZLgex-435" target="ROZJgOX0GMissYNZLgex-417" edge="1">
          <mxGeometry relative="1" as="geometry" />
        </mxCell>
        <mxCell id="ROZJgOX0GMissYNZLgex-435" value="Reset Timer" style="rounded=0;whiteSpace=wrap;html=1;" parent="1" vertex="1">
          <mxGeometry x="1040" y="2141.8" width="120" height="60" as="geometry" />
        </mxCell>
        <mxCell id="ROZJgOX0GMissYNZLgex-436" style="edgeStyle=orthogonalEdgeStyle;rounded=0;orthogonalLoop=1;jettySize=auto;html=1;exitX=1;exitY=0.5;exitDx=0;exitDy=0;entryX=0;entryY=0.5;entryDx=0;entryDy=0;" parent="1" source="ROZJgOX0GMissYNZLgex-438" target="ROZJgOX0GMissYNZLgex-441" edge="1">
          <mxGeometry relative="1" as="geometry" />
        </mxCell>
        <mxCell id="ROZJgOX0GMissYNZLgex-437" style="edgeStyle=orthogonalEdgeStyle;rounded=0;orthogonalLoop=1;jettySize=auto;html=1;exitX=0.5;exitY=1;exitDx=0;exitDy=0;entryX=0.5;entryY=0;entryDx=0;entryDy=0;" parent="1" source="ROZJgOX0GMissYNZLgex-438" target="ROZJgOX0GMissYNZLgex-476" edge="1">
          <mxGeometry relative="1" as="geometry" />
        </mxCell>
        <mxCell id="ROZJgOX0GMissYNZLgex-438" value="Data byte?" style="rhombus;whiteSpace=wrap;html=1;" parent="1" vertex="1">
          <mxGeometry x="1205" y="2254.8" width="160" height="80" as="geometry" />
        </mxCell>
        <mxCell id="ROZJgOX0GMissYNZLgex-439" style="edgeStyle=orthogonalEdgeStyle;rounded=0;orthogonalLoop=1;jettySize=auto;html=1;exitX=0.5;exitY=0;exitDx=0;exitDy=0;entryX=0.5;entryY=1;entryDx=0;entryDy=0;" parent="1" source="ROZJgOX0GMissYNZLgex-441" target="ROZJgOX0GMissYNZLgex-444" edge="1">
          <mxGeometry relative="1" as="geometry" />
        </mxCell>
        <mxCell id="ROZJgOX0GMissYNZLgex-440" style="edgeStyle=orthogonalEdgeStyle;rounded=0;orthogonalLoop=1;jettySize=auto;html=1;exitX=1;exitY=0.5;exitDx=0;exitDy=0;entryX=0;entryY=0.5;entryDx=0;entryDy=0;" parent="1" source="ROZJgOX0GMissYNZLgex-441" target="ROZJgOX0GMissYNZLgex-447" edge="1">
          <mxGeometry relative="1" as="geometry" />
        </mxCell>
        <mxCell id="ROZJgOX0GMissYNZLgex-441" value="Utilised non-realtime&amp;nbsp;&lt;div&gt;Status byte (not inc.&lt;/div&gt;&lt;div&gt;sysex start)?&lt;/div&gt;" style="rhombus;whiteSpace=wrap;html=1;" parent="1" vertex="1">
          <mxGeometry x="1405" y="2254.8" width="160" height="80" as="geometry" />
        </mxCell>
        <mxCell id="ROZJgOX0GMissYNZLgex-442" value="No" style="text;html=1;align=center;verticalAlign=middle;resizable=0;points=[];autosize=1;strokeColor=none;fillColor=none;" parent="1" vertex="1">
          <mxGeometry x="1365" y="2259.8" width="35" height="30" as="geometry" />
        </mxCell>
        <mxCell id="ROZJgOX0GMissYNZLgex-443" value="Yes" style="text;html=1;align=center;verticalAlign=middle;resizable=0;points=[];autosize=1;strokeColor=none;fillColor=none;" parent="1" vertex="1">
          <mxGeometry x="1485" y="2224.8" width="40" height="30" as="geometry" />
        </mxCell>
        <mxCell id="ROZJgOX0GMissYNZLgex-673" style="edgeStyle=orthogonalEdgeStyle;rounded=0;orthogonalLoop=1;jettySize=auto;html=1;exitX=0.5;exitY=0;exitDx=0;exitDy=0;entryX=0;entryY=0.5;entryDx=0;entryDy=0;jumpStyle=arc;" parent="1" source="ROZJgOX0GMissYNZLgex-444" target="ROZJgOX0GMissYNZLgex-16" edge="1">
          <mxGeometry relative="1" as="geometry">
            <Array as="points">
              <mxPoint x="1485" y="1135" />
              <mxPoint x="314" y="1135" />
              <mxPoint x="314" y="1187" />
            </Array>
          </mxGeometry>
        </mxCell>
        <mxCell id="ROZJgOX0GMissYNZLgex-444" value="Reset Timer" style="rounded=0;whiteSpace=wrap;html=1;" parent="1" vertex="1">
          <mxGeometry x="1425" y="2164.8" width="120" height="60" as="geometry" />
        </mxCell>
        <mxCell id="ROZJgOX0GMissYNZLgex-445" value="No" style="text;html=1;align=center;verticalAlign=middle;resizable=0;points=[];autosize=1;strokeColor=none;fillColor=none;" parent="1" vertex="1">
          <mxGeometry x="1560" y="2264.8" width="35" height="30" as="geometry" />
        </mxCell>
        <mxCell id="ROZJgOX0GMissYNZLgex-446" style="edgeStyle=orthogonalEdgeStyle;rounded=0;orthogonalLoop=1;jettySize=auto;html=1;exitX=0.5;exitY=0;exitDx=0;exitDy=0;entryX=0.5;entryY=1;entryDx=0;entryDy=0;" parent="1" source="ROZJgOX0GMissYNZLgex-447" target="ROZJgOX0GMissYNZLgex-449" edge="1">
          <mxGeometry relative="1" as="geometry" />
        </mxCell>
        <mxCell id="ROZJgOX0GMissYNZLgex-637" style="edgeStyle=orthogonalEdgeStyle;rounded=0;orthogonalLoop=1;jettySize=auto;html=1;exitX=1;exitY=0.5;exitDx=0;exitDy=0;entryX=0;entryY=0.5;entryDx=0;entryDy=0;" parent="1" source="ROZJgOX0GMissYNZLgex-447" target="ROZJgOX0GMissYNZLgex-636" edge="1">
          <mxGeometry relative="1" as="geometry" />
        </mxCell>
        <mxCell id="ROZJgOX0GMissYNZLgex-447" value="F4 or F5?" style="rhombus;whiteSpace=wrap;html=1;" parent="1" vertex="1">
          <mxGeometry x="1605" y="2254.8" width="160" height="80" as="geometry" />
        </mxCell>
        <mxCell id="ROZJgOX0GMissYNZLgex-449" value="Clear running status and reset timer" style="rounded=0;whiteSpace=wrap;html=1;" parent="1" vertex="1">
          <mxGeometry x="1625" y="2161.8" width="120" height="60" as="geometry" />
        </mxCell>
        <mxCell id="ROZJgOX0GMissYNZLgex-450" style="edgeStyle=orthogonalEdgeStyle;rounded=0;orthogonalLoop=1;jettySize=auto;html=1;exitX=0.5;exitY=0;exitDx=0;exitDy=0;entryX=0.5;entryY=0;entryDx=0;entryDy=0;jumpStyle=arc;" parent="1" source="ROZJgOX0GMissYNZLgex-449" target="ROZJgOX0GMissYNZLgex-417" edge="1">
          <mxGeometry relative="1" as="geometry">
            <Array as="points">
              <mxPoint x="1685" y="1835" />
              <mxPoint x="1100" y="1835" />
            </Array>
            <mxPoint x="1685" y="2069.8" as="sourcePoint" />
          </mxGeometry>
        </mxCell>
        <mxCell id="ROZJgOX0GMissYNZLgex-452" style="edgeStyle=orthogonalEdgeStyle;rounded=0;orthogonalLoop=1;jettySize=auto;html=1;exitX=0.5;exitY=1;exitDx=0;exitDy=0;entryX=0.5;entryY=0;entryDx=0;entryDy=0;" parent="1" edge="1">
          <mxGeometry relative="1" as="geometry">
            <mxPoint x="1285" y="2688.8" as="targetPoint" />
            <mxPoint x="1285" y="2648.8" as="sourcePoint" />
          </mxGeometry>
        </mxCell>
        <mxCell id="ROZJgOX0GMissYNZLgex-453" style="edgeStyle=orthogonalEdgeStyle;rounded=0;orthogonalLoop=1;jettySize=auto;html=1;exitX=0.5;exitY=1;exitDx=0;exitDy=0;entryX=0.5;entryY=0;entryDx=0;entryDy=0;" parent="1" source="ROZJgOX0GMissYNZLgex-454" target="ROZJgOX0GMissYNZLgex-472" edge="1">
          <mxGeometry relative="1" as="geometry" />
        </mxCell>
        <mxCell id="ROZJgOX0GMissYNZLgex-454" value="PC status byte&amp;nbsp;&lt;div&gt;in running status?&lt;/div&gt;" style="rhombus;whiteSpace=wrap;html=1;" parent="1" vertex="1">
          <mxGeometry x="1205" y="2476.8" width="160" height="80" as="geometry" />
        </mxCell>
        <mxCell id="ROZJgOX0GMissYNZLgex-455" value="CC status byte&amp;nbsp;&lt;div&gt;in running status?&lt;/div&gt;" style="rhombus;whiteSpace=wrap;html=1;" parent="1" vertex="1">
          <mxGeometry x="1365" y="2546.8" width="160" height="80" as="geometry" />
        </mxCell>
        <mxCell id="ROZJgOX0GMissYNZLgex-456" style="edgeStyle=orthogonalEdgeStyle;rounded=0;orthogonalLoop=1;jettySize=auto;html=1;exitX=1;exitY=0.5;exitDx=0;exitDy=0;entryX=0.5;entryY=0;entryDx=0;entryDy=0;" parent="1" edge="1">
          <mxGeometry relative="1" as="geometry">
            <mxPoint x="1365" y="2516.8" as="sourcePoint" />
            <mxPoint x="1445" y="2546.8" as="targetPoint" />
          </mxGeometry>
        </mxCell>
        <mxCell id="ROZJgOX0GMissYNZLgex-457" value="No" style="text;html=1;align=center;verticalAlign=middle;resizable=0;points=[];autosize=1;strokeColor=none;fillColor=none;" parent="1" vertex="1">
          <mxGeometry x="1355" y="2486.8" width="40" height="30" as="geometry" />
        </mxCell>
        <mxCell id="ROZJgOX0GMissYNZLgex-458" value="Yes" style="text;html=1;align=center;verticalAlign=middle;resizable=0;points=[];autosize=1;strokeColor=none;fillColor=none;" parent="1" vertex="1">
          <mxGeometry x="1250" y="2553.8" width="40" height="30" as="geometry" />
        </mxCell>
        <mxCell id="ROZJgOX0GMissYNZLgex-459" style="edgeStyle=orthogonalEdgeStyle;rounded=0;orthogonalLoop=1;jettySize=auto;html=1;exitX=0.5;exitY=1;exitDx=0;exitDy=0;entryX=0.5;entryY=0;entryDx=0;entryDy=0;" parent="1" source="ROZJgOX0GMissYNZLgex-455" edge="1">
          <mxGeometry relative="1" as="geometry">
            <mxPoint x="1445" y="2628.8" as="sourcePoint" />
            <mxPoint x="1445" y="2671.8" as="targetPoint" />
          </mxGeometry>
        </mxCell>
        <mxCell id="ROZJgOX0GMissYNZLgex-460" value="Yes" style="text;html=1;align=center;verticalAlign=middle;resizable=0;points=[];autosize=1;strokeColor=none;fillColor=none;" parent="1" vertex="1">
          <mxGeometry x="1405" y="2626.8" width="40" height="30" as="geometry" />
        </mxCell>
        <mxCell id="ROZJgOX0GMissYNZLgex-464" value="No" style="text;html=1;align=center;verticalAlign=middle;resizable=0;points=[];autosize=1;strokeColor=none;fillColor=none;" parent="1" vertex="1">
          <mxGeometry x="1515" y="2556.8" width="40" height="30" as="geometry" />
        </mxCell>
        <mxCell id="ROZJgOX0GMissYNZLgex-467" value="Yes" style="text;html=1;align=center;verticalAlign=middle;resizable=0;points=[];autosize=1;strokeColor=none;fillColor=none;" parent="1" vertex="1">
          <mxGeometry x="1290" y="2444.8" width="40" height="30" as="geometry" />
        </mxCell>
        <mxCell id="ROZJgOX0GMissYNZLgex-468" style="edgeStyle=orthogonalEdgeStyle;rounded=0;orthogonalLoop=1;jettySize=auto;html=1;exitX=0.5;exitY=1;exitDx=0;exitDy=0;entryX=0.5;entryY=0;entryDx=0;entryDy=0;" parent="1" source="ROZJgOX0GMissYNZLgex-469" edge="1">
          <mxGeometry relative="1" as="geometry">
            <mxPoint x="1285" y="2790.8" as="targetPoint" />
          </mxGeometry>
        </mxCell>
        <mxCell id="ROZJgOX0GMissYNZLgex-469" value="Store data&lt;div&gt;byte in buffer&lt;/div&gt;" style="rounded=0;whiteSpace=wrap;html=1;" parent="1" vertex="1">
          <mxGeometry x="1225" y="2688.8" width="120" height="60" as="geometry" />
        </mxCell>
        <mxCell id="ROZJgOX0GMissYNZLgex-470" style="edgeStyle=orthogonalEdgeStyle;rounded=0;orthogonalLoop=1;jettySize=auto;html=1;exitX=0.5;exitY=1;exitDx=0;exitDy=0;entryX=0.5;entryY=0;entryDx=0;entryDy=0;" parent="1" source="ROZJgOX0GMissYNZLgex-471" target="ROZJgOX0GMissYNZLgex-473" edge="1">
          <mxGeometry relative="1" as="geometry" />
        </mxCell>
        <mxCell id="ROZJgOX0GMissYNZLgex-471" value="Store data byte in buffer" style="rounded=0;whiteSpace=wrap;html=1;" parent="1" vertex="1">
          <mxGeometry x="1385" y="2673.8" width="120" height="60" as="geometry" />
        </mxCell>
        <mxCell id="ROZJgOX0GMissYNZLgex-472" value="Stop Timer" style="rounded=0;whiteSpace=wrap;html=1;" parent="1" vertex="1">
          <mxGeometry x="1225" y="2586.8" width="120" height="60" as="geometry" />
        </mxCell>
        <mxCell id="ROZJgOX0GMissYNZLgex-473" value="Reset Timer" style="rounded=0;whiteSpace=wrap;html=1;" parent="1" vertex="1">
          <mxGeometry x="1385" y="2771.8" width="120" height="60" as="geometry" />
        </mxCell>
        <mxCell id="ROZJgOX0GMissYNZLgex-474" style="edgeStyle=orthogonalEdgeStyle;rounded=0;orthogonalLoop=1;jettySize=auto;html=1;exitX=0.5;exitY=1;exitDx=0;exitDy=0;entryX=0.5;entryY=0;entryDx=0;entryDy=0;" parent="1" source="ROZJgOX0GMissYNZLgex-476" target="ROZJgOX0GMissYNZLgex-454" edge="1">
          <mxGeometry relative="1" as="geometry" />
        </mxCell>
        <mxCell id="ROZJgOX0GMissYNZLgex-475" style="edgeStyle=orthogonalEdgeStyle;rounded=0;orthogonalLoop=1;jettySize=auto;html=1;exitX=1;exitY=0.5;exitDx=0;exitDy=0;entryX=0;entryY=0.5;entryDx=0;entryDy=0;" parent="1" source="ROZJgOX0GMissYNZLgex-476" target="ROZJgOX0GMissYNZLgex-478" edge="1">
          <mxGeometry relative="1" as="geometry" />
        </mxCell>
        <mxCell id="ROZJgOX0GMissYNZLgex-476" value="First data byte?" style="rhombus;whiteSpace=wrap;html=1;" parent="1" vertex="1">
          <mxGeometry x="1205" y="2364.8" width="160" height="80" as="geometry" />
        </mxCell>
        <mxCell id="ROZJgOX0GMissYNZLgex-477" style="edgeStyle=orthogonalEdgeStyle;rounded=0;orthogonalLoop=1;jettySize=auto;html=1;exitX=0.5;exitY=1;exitDx=0;exitDy=0;entryX=0.5;entryY=0;entryDx=0;entryDy=0;" parent="1" source="ROZJgOX0GMissYNZLgex-478" target="ROZJgOX0GMissYNZLgex-481" edge="1">
          <mxGeometry relative="1" as="geometry" />
        </mxCell>
        <mxCell id="ROZJgOX0GMissYNZLgex-478" value="Second data byte?" style="rhombus;whiteSpace=wrap;html=1;" parent="1" vertex="1">
          <mxGeometry x="1805" y="2364.8" width="160" height="80" as="geometry" />
        </mxCell>
        <mxCell id="ROZJgOX0GMissYNZLgex-479" value="No" style="text;html=1;align=center;verticalAlign=middle;resizable=0;points=[];autosize=1;strokeColor=none;fillColor=none;" parent="1" vertex="1">
          <mxGeometry x="1358" y="2379.8" width="35" height="30" as="geometry" />
        </mxCell>
        <mxCell id="ROZJgOX0GMissYNZLgex-480" style="edgeStyle=orthogonalEdgeStyle;rounded=0;orthogonalLoop=1;jettySize=auto;html=1;exitX=0.5;exitY=1;exitDx=0;exitDy=0;entryX=0.5;entryY=0;entryDx=0;entryDy=0;" parent="1" source="ROZJgOX0GMissYNZLgex-481" target="ROZJgOX0GMissYNZLgex-508" edge="1">
          <mxGeometry relative="1" as="geometry" />
        </mxCell>
        <mxCell id="ROZJgOX0GMissYNZLgex-481" value="CC status byte&amp;nbsp;&lt;div&gt;in running status?&lt;/div&gt;" style="rhombus;whiteSpace=wrap;html=1;" parent="1" vertex="1">
          <mxGeometry x="1805" y="2476.8" width="160" height="80" as="geometry" />
        </mxCell>
        <mxCell id="ROZJgOX0GMissYNZLgex-482" value="Yes" style="text;html=1;align=center;verticalAlign=middle;resizable=0;points=[];autosize=1;strokeColor=none;fillColor=none;" parent="1" vertex="1">
          <mxGeometry x="1845" y="2556.8" width="40" height="30" as="geometry" />
        </mxCell>
        <mxCell id="ROZJgOX0GMissYNZLgex-486" value="No" style="text;html=1;align=center;verticalAlign=middle;resizable=0;points=[];autosize=1;strokeColor=none;fillColor=none;" parent="1" vertex="1">
          <mxGeometry x="1955" y="2486.8" width="40" height="30" as="geometry" />
        </mxCell>
        <mxCell id="ROZJgOX0GMissYNZLgex-488" value="Yes" style="text;html=1;align=center;verticalAlign=middle;resizable=0;points=[];autosize=1;strokeColor=none;fillColor=none;" parent="1" vertex="1">
          <mxGeometry x="1885" y="2444.8" width="40" height="30" as="geometry" />
        </mxCell>
        <mxCell id="ROZJgOX0GMissYNZLgex-490" style="edgeStyle=orthogonalEdgeStyle;rounded=0;orthogonalLoop=1;jettySize=auto;html=1;exitX=0.5;exitY=1;exitDx=0;exitDy=0;entryX=0.5;entryY=0;entryDx=0;entryDy=0;" parent="1" source="ROZJgOX0GMissYNZLgex-492" target="ROZJgOX0GMissYNZLgex-495" edge="1">
          <mxGeometry relative="1" as="geometry" />
        </mxCell>
        <mxCell id="ROZJgOX0GMissYNZLgex-491" style="edgeStyle=orthogonalEdgeStyle;rounded=0;orthogonalLoop=1;jettySize=auto;html=1;exitX=1;exitY=0.5;exitDx=0;exitDy=0;entryX=0;entryY=0.5;entryDx=0;entryDy=0;" parent="1" source="ROZJgOX0GMissYNZLgex-492" edge="1">
          <mxGeometry relative="1" as="geometry">
            <mxPoint x="2025" y="2960.3" as="targetPoint" />
          </mxGeometry>
        </mxCell>
        <mxCell id="ROZJgOX0GMissYNZLgex-492" value="Is the first&lt;div&gt;data byte a utilised CC?&lt;/div&gt;&lt;div&gt;&lt;div&gt;&lt;div&gt;&lt;br&gt;&lt;/div&gt;&lt;/div&gt;&lt;/div&gt;" style="rhombus;whiteSpace=wrap;html=1;" parent="1" vertex="1">
          <mxGeometry x="1805" y="2920.3" width="160" height="80" as="geometry" />
        </mxCell>
        <mxCell id="ROZJgOX0GMissYNZLgex-493" style="edgeStyle=orthogonalEdgeStyle;rounded=0;orthogonalLoop=1;jettySize=auto;html=1;exitX=0.5;exitY=1;exitDx=0;exitDy=0;" parent="1" source="ROZJgOX0GMissYNZLgex-495" edge="1">
          <mxGeometry relative="1" as="geometry">
            <mxPoint x="1884.5714285714284" y="3153.3000000000006" as="targetPoint" />
          </mxGeometry>
        </mxCell>
        <mxCell id="ROZJgOX0GMissYNZLgex-494" style="edgeStyle=orthogonalEdgeStyle;rounded=0;orthogonalLoop=1;jettySize=auto;html=1;exitX=1;exitY=0.5;exitDx=0;exitDy=0;entryX=0;entryY=0.5;entryDx=0;entryDy=0;" parent="1" source="ROZJgOX0GMissYNZLgex-495" edge="1">
          <mxGeometry relative="1" as="geometry">
            <mxPoint x="2026" y="3075.3" as="targetPoint" />
          </mxGeometry>
        </mxCell>
        <mxCell id="ROZJgOX0GMissYNZLgex-495" value="&lt;div&gt;Is the&amp;nbsp;&lt;br&gt;&lt;/div&gt;&lt;div&gt;first&lt;br&gt;&lt;div&gt;data byte a utilised&lt;/div&gt;&lt;div&gt;CH MODE?&lt;/div&gt;&lt;div&gt;&lt;div&gt;&lt;div&gt;&lt;br&gt;&lt;/div&gt;&lt;/div&gt;&lt;/div&gt;&lt;/div&gt;" style="rhombus;whiteSpace=wrap;html=1;" parent="1" vertex="1">
          <mxGeometry x="1805" y="3035.3" width="160" height="80" as="geometry" />
        </mxCell>
        <mxCell id="ROZJgOX0GMissYNZLgex-496" value="No" style="text;html=1;align=center;verticalAlign=middle;resizable=0;points=[];autosize=1;strokeColor=none;fillColor=none;" parent="1" vertex="1">
          <mxGeometry x="1847.5" y="2996.3" width="35" height="30" as="geometry" />
        </mxCell>
        <mxCell id="ROZJgOX0GMissYNZLgex-497" value="No" style="text;html=1;align=center;verticalAlign=middle;resizable=0;points=[];autosize=1;strokeColor=none;fillColor=none;" parent="1" vertex="1">
          <mxGeometry x="1847.5" y="3113.3" width="35" height="30" as="geometry" />
        </mxCell>
        <mxCell id="ROZJgOX0GMissYNZLgex-498" style="edgeStyle=orthogonalEdgeStyle;rounded=0;orthogonalLoop=1;jettySize=auto;html=1;exitX=0.5;exitY=1;exitDx=0;exitDy=0;entryX=0.5;entryY=0;entryDx=0;entryDy=0;" parent="1" source="ROZJgOX0GMissYNZLgex-500" target="ROZJgOX0GMissYNZLgex-501" edge="1">
          <mxGeometry relative="1" as="geometry" />
        </mxCell>
        <mxCell id="ROZJgOX0GMissYNZLgex-499" style="edgeStyle=orthogonalEdgeStyle;rounded=0;orthogonalLoop=1;jettySize=auto;html=1;exitX=0;exitY=0.5;exitDx=0;exitDy=0;entryX=1;entryY=0.5;entryDx=0;entryDy=0;" parent="1" source="ROZJgOX0GMissYNZLgex-500" target="ROZJgOX0GMissYNZLgex-502" edge="1">
          <mxGeometry relative="1" as="geometry" />
        </mxCell>
        <mxCell id="ROZJgOX0GMissYNZLgex-500" value="Is data byte&lt;div&gt;in range?&lt;/div&gt;" style="rhombus;whiteSpace=wrap;html=1;" parent="1" vertex="1">
          <mxGeometry x="1205" y="2789.8" width="160" height="80" as="geometry" />
        </mxCell>
        <mxCell id="ROZJgOX0GMissYNZLgex-501" value="Select appropriate&lt;div&gt;preset. Clear data buffer and active service buffer, do not clear running status buffer.&lt;/div&gt;" style="rounded=0;whiteSpace=wrap;html=1;" parent="1" vertex="1">
          <mxGeometry x="1225" y="2906.8" width="120" height="143" as="geometry" />
        </mxCell>
        <mxCell id="ROZJgOX0GMissYNZLgex-502" value="Do not select preset. Clear data buffer and active service buffer, do not clear running status buffer." style="rounded=0;whiteSpace=wrap;html=1;" parent="1" vertex="1">
          <mxGeometry x="1035" y="2758.3" width="120" height="143" as="geometry" />
        </mxCell>
        <mxCell id="ROZJgOX0GMissYNZLgex-503" value="No" style="text;html=1;align=center;verticalAlign=middle;resizable=0;points=[];autosize=1;strokeColor=none;fillColor=none;" parent="1" vertex="1">
          <mxGeometry x="1175" y="2801.8" width="35" height="30" as="geometry" />
        </mxCell>
        <mxCell id="ROZJgOX0GMissYNZLgex-539" style="edgeStyle=orthogonalEdgeStyle;rounded=0;orthogonalLoop=1;jettySize=auto;html=1;exitX=1;exitY=0.5;exitDx=0;exitDy=0;entryX=0.5;entryY=0;entryDx=0;entryDy=0;" parent="1" source="ROZJgOX0GMissYNZLgex-505" target="ROZJgOX0GMissYNZLgex-529" edge="1">
          <mxGeometry relative="1" as="geometry" />
        </mxCell>
        <mxCell id="ROZJgOX0GMissYNZLgex-505" value="Process and action combined CC&lt;div&gt;status and data bytes, clear data buffer and&lt;/div&gt;&lt;div&gt;status buffer (obvs&lt;/div&gt;&lt;div&gt;don&#39;t clear running status buffer)&lt;/div&gt;" style="rounded=0;whiteSpace=wrap;html=1;" parent="1" vertex="1">
          <mxGeometry x="2026" y="2908.3" width="120" height="104" as="geometry" />
        </mxCell>
        <mxCell id="ROZJgOX0GMissYNZLgex-506" style="edgeStyle=orthogonalEdgeStyle;rounded=0;orthogonalLoop=1;jettySize=auto;html=1;exitX=1;exitY=0.5;exitDx=0;exitDy=0;entryX=0;entryY=0.5;entryDx=0;entryDy=0;" parent="1" source="ROZJgOX0GMissYNZLgex-508" target="ROZJgOX0GMissYNZLgex-511" edge="1">
          <mxGeometry relative="1" as="geometry" />
        </mxCell>
        <mxCell id="ROZJgOX0GMissYNZLgex-507" style="edgeStyle=orthogonalEdgeStyle;rounded=0;orthogonalLoop=1;jettySize=auto;html=1;exitX=0.5;exitY=1;exitDx=0;exitDy=0;entryX=0.5;entryY=0;entryDx=0;entryDy=0;" parent="1" source="ROZJgOX0GMissYNZLgex-508" target="ROZJgOX0GMissYNZLgex-492" edge="1">
          <mxGeometry relative="1" as="geometry" />
        </mxCell>
        <mxCell id="ROZJgOX0GMissYNZLgex-508" value="CC status byte on&amp;nbsp;&lt;div&gt;Basic Channel?&lt;/div&gt;" style="rhombus;whiteSpace=wrap;html=1;" parent="1" vertex="1">
          <mxGeometry x="1805" y="2809.8" width="160" height="80" as="geometry" />
        </mxCell>
        <mxCell id="ROZJgOX0GMissYNZLgex-509" style="edgeStyle=orthogonalEdgeStyle;rounded=0;orthogonalLoop=1;jettySize=auto;html=1;exitX=1;exitY=0.5;exitDx=0;exitDy=0;entryX=0;entryY=0.5;entryDx=0;entryDy=0;" parent="1" source="ROZJgOX0GMissYNZLgex-511" target="ROZJgOX0GMissYNZLgex-515" edge="1">
          <mxGeometry relative="1" as="geometry" />
        </mxCell>
        <mxCell id="ROZJgOX0GMissYNZLgex-510" style="edgeStyle=orthogonalEdgeStyle;rounded=0;orthogonalLoop=1;jettySize=auto;html=1;exitX=0.5;exitY=0;exitDx=0;exitDy=0;entryX=0;entryY=0.5;entryDx=0;entryDy=0;" parent="1" source="ROZJgOX0GMissYNZLgex-511" target="ROZJgOX0GMissYNZLgex-518" edge="1">
          <mxGeometry relative="1" as="geometry" />
        </mxCell>
        <mxCell id="ROZJgOX0GMissYNZLgex-511" value="OMNI on?" style="rhombus;whiteSpace=wrap;html=1;" parent="1" vertex="1">
          <mxGeometry x="2006" y="2809.8" width="160" height="80" as="geometry" />
        </mxCell>
        <mxCell id="ROZJgOX0GMissYNZLgex-512" value="No" style="text;html=1;align=center;verticalAlign=middle;resizable=0;points=[];autosize=1;strokeColor=none;fillColor=none;" parent="1" vertex="1">
          <mxGeometry x="1965" y="2824.8" width="35" height="30" as="geometry" />
        </mxCell>
        <mxCell id="ROZJgOX0GMissYNZLgex-513" value="Yes" style="text;html=1;align=center;verticalAlign=middle;resizable=0;points=[];autosize=1;strokeColor=none;fillColor=none;" parent="1" vertex="1">
          <mxGeometry x="1842.5" y="2886.8" width="40" height="30" as="geometry" />
        </mxCell>
        <mxCell id="ROZJgOX0GMissYNZLgex-540" style="edgeStyle=orthogonalEdgeStyle;rounded=0;orthogonalLoop=1;jettySize=auto;html=1;exitX=1;exitY=0.5;exitDx=0;exitDy=0;" parent="1" source="ROZJgOX0GMissYNZLgex-515" edge="1">
          <mxGeometry relative="1" as="geometry">
            <mxPoint x="2395" y="2960" as="targetPoint" />
          </mxGeometry>
        </mxCell>
        <mxCell id="ROZJgOX0GMissYNZLgex-515" value="Process and action combined CC&lt;div&gt;status and data byte, clear data buffer and&lt;/div&gt;&lt;div&gt;status buffer (obvs&lt;/div&gt;&lt;div&gt;don&#39;t clear running status buffer)&lt;/div&gt;" style="rounded=0;whiteSpace=wrap;html=1;" parent="1" vertex="1">
          <mxGeometry x="2205" y="2797.3" width="120" height="104" as="geometry" />
        </mxCell>
        <mxCell id="ROZJgOX0GMissYNZLgex-516" value="Yes" style="text;html=1;align=center;verticalAlign=middle;resizable=0;points=[];autosize=1;strokeColor=none;fillColor=none;" parent="1" vertex="1">
          <mxGeometry x="2161" y="2824.8" width="40" height="30" as="geometry" />
        </mxCell>
        <mxCell id="ROZJgOX0GMissYNZLgex-517" value="No" style="text;html=1;align=center;verticalAlign=middle;resizable=0;points=[];autosize=1;strokeColor=none;fillColor=none;" parent="1" vertex="1">
          <mxGeometry x="2090" y="2779.8" width="35" height="30" as="geometry" />
        </mxCell>
        <mxCell id="ROZJgOX0GMissYNZLgex-518" value="Stop Timer and clear&lt;div&gt;active status byte buffer&lt;/div&gt;" style="rounded=0;whiteSpace=wrap;html=1;" parent="1" vertex="1">
          <mxGeometry x="2201" y="2701.8" width="120" height="60" as="geometry" />
        </mxCell>
        <mxCell id="ROZJgOX0GMissYNZLgex-519" value="Yes" style="text;html=1;align=center;verticalAlign=middle;resizable=0;points=[];autosize=1;strokeColor=none;fillColor=none;" parent="1" vertex="1">
          <mxGeometry x="1962.5" y="2934.8" width="40" height="30" as="geometry" />
        </mxCell>
        <mxCell id="ROZJgOX0GMissYNZLgex-520" value="Yes" style="text;html=1;align=center;verticalAlign=middle;resizable=0;points=[];autosize=1;strokeColor=none;fillColor=none;" parent="1" vertex="1">
          <mxGeometry x="1962.5" y="3049.8" width="40" height="30" as="geometry" />
        </mxCell>
        <mxCell id="ROZJgOX0GMissYNZLgex-537" style="edgeStyle=orthogonalEdgeStyle;rounded=0;orthogonalLoop=1;jettySize=auto;html=1;exitX=0.5;exitY=1;exitDx=0;exitDy=0;" parent="1" source="ROZJgOX0GMissYNZLgex-522" edge="1">
          <mxGeometry relative="1" as="geometry">
            <mxPoint x="1885" y="3300" as="targetPoint" />
            <Array as="points">
              <mxPoint x="2148" y="3300" />
            </Array>
          </mxGeometry>
        </mxCell>
        <mxCell id="ROZJgOX0GMissYNZLgex-522" value="Process and action combined CC CH MODE&lt;div&gt;status and data bytes, clear all buffers except running status&lt;/div&gt;" style="rounded=0;whiteSpace=wrap;html=1;" parent="1" vertex="1">
          <mxGeometry x="2066" y="3146.8" width="164" height="104" as="geometry" />
        </mxCell>
        <mxCell id="ROZJgOX0GMissYNZLgex-523" style="edgeStyle=orthogonalEdgeStyle;rounded=0;orthogonalLoop=1;jettySize=auto;html=1;exitX=0.5;exitY=1;exitDx=0;exitDy=0;entryX=0.5;entryY=0;entryDx=0;entryDy=0;" parent="1" source="ROZJgOX0GMissYNZLgex-525" target="ROZJgOX0GMissYNZLgex-522" edge="1">
          <mxGeometry relative="1" as="geometry" />
        </mxCell>
        <mxCell id="ROZJgOX0GMissYNZLgex-524" style="edgeStyle=orthogonalEdgeStyle;rounded=0;orthogonalLoop=1;jettySize=auto;html=1;exitX=1;exitY=0.5;exitDx=0;exitDy=0;entryX=0;entryY=0.5;entryDx=0;entryDy=0;" parent="1" source="ROZJgOX0GMissYNZLgex-525" target="ROZJgOX0GMissYNZLgex-529" edge="1">
          <mxGeometry relative="1" as="geometry" />
        </mxCell>
        <mxCell id="ROZJgOX0GMissYNZLgex-525" value="&lt;div&gt;Is the&amp;nbsp;&lt;br&gt;&lt;/div&gt;&lt;div&gt;second&lt;br&gt;&lt;div&gt;data byte a valid input&lt;/div&gt;&lt;div&gt;for the 1st data byte?&lt;/div&gt;&lt;div&gt;&lt;div&gt;&lt;div&gt;&lt;br&gt;&lt;/div&gt;&lt;/div&gt;&lt;/div&gt;&lt;/div&gt;" style="rhombus;whiteSpace=wrap;html=1;" parent="1" vertex="1">
          <mxGeometry x="2026" y="3035.3" width="244" height="80" as="geometry" />
        </mxCell>
        <mxCell id="ROZJgOX0GMissYNZLgex-526" value="Yes" style="text;html=1;align=center;verticalAlign=middle;resizable=0;points=[];autosize=1;strokeColor=none;fillColor=none;" parent="1" vertex="1">
          <mxGeometry x="2146" y="3109.8" width="40" height="30" as="geometry" />
        </mxCell>
        <mxCell id="ROZJgOX0GMissYNZLgex-527" value="No" style="text;html=1;align=center;verticalAlign=middle;resizable=0;points=[];autosize=1;strokeColor=none;fillColor=none;" parent="1" vertex="1">
          <mxGeometry x="2265" y="3046.8" width="35" height="30" as="geometry" />
        </mxCell>
        <mxCell id="ROZJgOX0GMissYNZLgex-538" style="edgeStyle=orthogonalEdgeStyle;rounded=0;orthogonalLoop=1;jettySize=auto;html=1;exitX=0.5;exitY=1;exitDx=0;exitDy=0;" parent="1" source="ROZJgOX0GMissYNZLgex-529" edge="1">
          <mxGeometry relative="1" as="geometry">
            <mxPoint x="2150" y="3300" as="targetPoint" />
            <Array as="points">
              <mxPoint x="2397" y="3300" />
            </Array>
          </mxGeometry>
        </mxCell>
        <mxCell id="ROZJgOX0GMissYNZLgex-529" value="Clear all buffers except running status, stop timer" style="rounded=0;whiteSpace=wrap;html=1;" parent="1" vertex="1">
          <mxGeometry x="2315" y="3022.8" width="164" height="104" as="geometry" />
        </mxCell>
        <mxCell id="ROZJgOX0GMissYNZLgex-536" style="edgeStyle=orthogonalEdgeStyle;rounded=0;orthogonalLoop=1;jettySize=auto;html=1;exitX=0.5;exitY=1;exitDx=0;exitDy=0;" parent="1" source="ROZJgOX0GMissYNZLgex-531" edge="1">
          <mxGeometry relative="1" as="geometry">
            <mxPoint x="70" y="420" as="targetPoint" />
            <Array as="points">
              <mxPoint x="1885" y="3300" />
              <mxPoint x="40" y="3300" />
              <mxPoint x="40" y="420" />
            </Array>
          </mxGeometry>
        </mxCell>
        <mxCell id="ROZJgOX0GMissYNZLgex-531" value="Clear all buffers except running status, stop timer" style="rounded=0;whiteSpace=wrap;html=1;" parent="1" vertex="1">
          <mxGeometry x="1803" y="3154.8" width="164" height="104" as="geometry" />
        </mxCell>
        <mxCell id="ROZJgOX0GMissYNZLgex-535" style="edgeStyle=orthogonalEdgeStyle;rounded=0;orthogonalLoop=1;jettySize=auto;html=1;exitX=0.5;exitY=0;exitDx=0;exitDy=0;" parent="1" source="ROZJgOX0GMissYNZLgex-533" edge="1">
          <mxGeometry relative="1" as="geometry">
            <mxPoint x="1120" y="1305" as="targetPoint" />
          </mxGeometry>
        </mxCell>
        <mxCell id="ROZJgOX0GMissYNZLgex-533" value="Stop Timer and clear&lt;div&gt;active data buffer&lt;/div&gt;" style="rounded=0;whiteSpace=wrap;html=1;" parent="1" vertex="1">
          <mxGeometry x="1225" y="1717" width="120" height="60" as="geometry" />
        </mxCell>
        <mxCell id="ROZJgOX0GMissYNZLgex-553" style="edgeStyle=orthogonalEdgeStyle;rounded=0;orthogonalLoop=1;jettySize=auto;html=1;exitX=1;exitY=0.5;exitDx=0;exitDy=0;entryX=0;entryY=0.5;entryDx=0;entryDy=0;" parent="1" source="ROZJgOX0GMissYNZLgex-543" target="ROZJgOX0GMissYNZLgex-551" edge="1">
          <mxGeometry relative="1" as="geometry" />
        </mxCell>
        <mxCell id="ROZJgOX0GMissYNZLgex-675" style="edgeStyle=orthogonalEdgeStyle;rounded=0;orthogonalLoop=1;jettySize=auto;html=1;exitX=0.5;exitY=1;exitDx=0;exitDy=0;entryX=0.25;entryY=0;entryDx=0;entryDy=0;jumpStyle=arc;" parent="1" source="ROZJgOX0GMissYNZLgex-543" target="ROZJgOX0GMissYNZLgex-674" edge="1">
          <mxGeometry relative="1" as="geometry" />
        </mxCell>
        <mxCell id="ROZJgOX0GMissYNZLgex-543" value="Third data byte?" style="rhombus;whiteSpace=wrap;html=1;" parent="1" vertex="1">
          <mxGeometry x="3485" y="695" width="160" height="80" as="geometry" />
        </mxCell>
        <mxCell id="ROZJgOX0GMissYNZLgex-547" value="No" style="text;html=1;align=center;verticalAlign=middle;resizable=0;points=[];autosize=1;strokeColor=none;fillColor=none;" parent="1" vertex="1">
          <mxGeometry x="2435" y="705" width="40" height="30" as="geometry" />
        </mxCell>
        <mxCell id="ROZJgOX0GMissYNZLgex-548" value="Yes" style="text;html=1;align=center;verticalAlign=middle;resizable=0;points=[];autosize=1;strokeColor=none;fillColor=none;" parent="1" vertex="1">
          <mxGeometry x="3525" y="777" width="40" height="30" as="geometry" />
        </mxCell>
        <mxCell id="ROZJgOX0GMissYNZLgex-549" value="No" style="text;html=1;align=center;verticalAlign=middle;resizable=0;points=[];autosize=1;strokeColor=none;fillColor=none;" parent="1" vertex="1">
          <mxGeometry x="3625" y="695" width="40" height="30" as="geometry" />
        </mxCell>
        <mxCell id="ROZJgOX0GMissYNZLgex-676" style="edgeStyle=orthogonalEdgeStyle;rounded=0;orthogonalLoop=1;jettySize=auto;html=1;exitX=0.5;exitY=1;exitDx=0;exitDy=0;entryX=0.75;entryY=0;entryDx=0;entryDy=0;jumpStyle=arc;" parent="1" source="ROZJgOX0GMissYNZLgex-551" target="ROZJgOX0GMissYNZLgex-674" edge="1">
          <mxGeometry relative="1" as="geometry">
            <Array as="points">
              <mxPoint x="3770" y="835" />
              <mxPoint x="4216" y="835" />
            </Array>
          </mxGeometry>
        </mxCell>
        <mxCell id="ROZJgOX0GMissYNZLgex-551" value="Fourth data byte?" style="rhombus;whiteSpace=wrap;html=1;" parent="1" vertex="1">
          <mxGeometry x="3690" y="695" width="160" height="80" as="geometry" />
        </mxCell>
        <mxCell id="ROZJgOX0GMissYNZLgex-552" value="Yes" style="text;html=1;align=center;verticalAlign=middle;resizable=0;points=[];autosize=1;strokeColor=none;fillColor=none;" parent="1" vertex="1">
          <mxGeometry x="3730" y="777" width="40" height="30" as="geometry" />
        </mxCell>
        <mxCell id="ROZJgOX0GMissYNZLgex-554" style="edgeStyle=orthogonalEdgeStyle;rounded=0;orthogonalLoop=1;jettySize=auto;html=1;exitX=1;exitY=0.5;exitDx=0;exitDy=0;entryX=0;entryY=0.5;entryDx=0;entryDy=0;" parent="1" target="ROZJgOX0GMissYNZLgex-557" edge="1">
          <mxGeometry relative="1" as="geometry">
            <mxPoint x="3845" y="735" as="sourcePoint" />
          </mxGeometry>
        </mxCell>
        <mxCell id="ROZJgOX0GMissYNZLgex-555" value="No" style="text;html=1;align=center;verticalAlign=middle;resizable=0;points=[];autosize=1;strokeColor=none;fillColor=none;" parent="1" vertex="1">
          <mxGeometry x="3825" y="695" width="40" height="30" as="geometry" />
        </mxCell>
        <mxCell id="ROZJgOX0GMissYNZLgex-677" style="edgeStyle=orthogonalEdgeStyle;rounded=0;orthogonalLoop=1;jettySize=auto;html=1;exitX=0.5;exitY=1;exitDx=0;exitDy=0;entryX=0;entryY=0;entryDx=0;entryDy=0;jumpStyle=arc;" parent="1" source="ROZJgOX0GMissYNZLgex-557" target="ROZJgOX0GMissYNZLgex-674" edge="1">
          <mxGeometry relative="1" as="geometry">
            <Array as="points">
              <mxPoint x="3970" y="820" />
              <mxPoint x="4093" y="820" />
            </Array>
          </mxGeometry>
        </mxCell>
        <mxCell id="ROZJgOX0GMissYNZLgex-557" value="Fifth data byte?" style="rhombus;whiteSpace=wrap;html=1;" parent="1" vertex="1">
          <mxGeometry x="3890" y="695" width="160" height="80" as="geometry" />
        </mxCell>
        <mxCell id="ROZJgOX0GMissYNZLgex-559" style="edgeStyle=orthogonalEdgeStyle;rounded=0;orthogonalLoop=1;jettySize=auto;html=1;exitX=1;exitY=0.5;exitDx=0;exitDy=0;entryX=0;entryY=0.5;entryDx=0;entryDy=0;" parent="1" target="ROZJgOX0GMissYNZLgex-562" edge="1">
          <mxGeometry relative="1" as="geometry">
            <mxPoint x="4050" y="735" as="sourcePoint" />
          </mxGeometry>
        </mxCell>
        <mxCell id="ROZJgOX0GMissYNZLgex-560" value="No" style="text;html=1;align=center;verticalAlign=middle;resizable=0;points=[];autosize=1;strokeColor=none;fillColor=none;" parent="1" vertex="1">
          <mxGeometry x="4030" y="695" width="40" height="30" as="geometry" />
        </mxCell>
        <mxCell id="ROZJgOX0GMissYNZLgex-562" value="Sixth data byte?" style="rhombus;whiteSpace=wrap;html=1;" parent="1" vertex="1">
          <mxGeometry x="4095" y="695" width="160" height="80" as="geometry" />
        </mxCell>
        <mxCell id="ROZJgOX0GMissYNZLgex-564" style="edgeStyle=orthogonalEdgeStyle;rounded=0;orthogonalLoop=1;jettySize=auto;html=1;exitX=1;exitY=0.5;exitDx=0;exitDy=0;entryX=0;entryY=0.5;entryDx=0;entryDy=0;" parent="1" target="ROZJgOX0GMissYNZLgex-567" edge="1">
          <mxGeometry relative="1" as="geometry">
            <mxPoint x="4255" y="735" as="sourcePoint" />
          </mxGeometry>
        </mxCell>
        <mxCell id="ROZJgOX0GMissYNZLgex-565" value="No" style="text;html=1;align=center;verticalAlign=middle;resizable=0;points=[];autosize=1;strokeColor=none;fillColor=none;" parent="1" vertex="1">
          <mxGeometry x="4235" y="695" width="40" height="30" as="geometry" />
        </mxCell>
        <mxCell id="ROZJgOX0GMissYNZLgex-567" value="Seventh data byte?" style="rhombus;whiteSpace=wrap;html=1;" parent="1" vertex="1">
          <mxGeometry x="4300" y="695" width="160" height="80" as="geometry" />
        </mxCell>
        <mxCell id="ROZJgOX0GMissYNZLgex-569" style="edgeStyle=orthogonalEdgeStyle;rounded=0;orthogonalLoop=1;jettySize=auto;html=1;exitX=1;exitY=0.5;exitDx=0;exitDy=0;entryX=0;entryY=0.5;entryDx=0;entryDy=0;" parent="1" target="ROZJgOX0GMissYNZLgex-572" edge="1">
          <mxGeometry relative="1" as="geometry">
            <mxPoint x="4460" y="735" as="sourcePoint" />
          </mxGeometry>
        </mxCell>
        <mxCell id="ROZJgOX0GMissYNZLgex-570" value="No" style="text;html=1;align=center;verticalAlign=middle;resizable=0;points=[];autosize=1;strokeColor=none;fillColor=none;" parent="1" vertex="1">
          <mxGeometry x="4440" y="695" width="40" height="30" as="geometry" />
        </mxCell>
        <mxCell id="ROZJgOX0GMissYNZLgex-572" value="Eight data byte?" style="rhombus;whiteSpace=wrap;html=1;" parent="1" vertex="1">
          <mxGeometry x="4505" y="695" width="160" height="80" as="geometry" />
        </mxCell>
        <mxCell id="ROZJgOX0GMissYNZLgex-574" style="edgeStyle=orthogonalEdgeStyle;rounded=0;orthogonalLoop=1;jettySize=auto;html=1;exitX=1;exitY=0.5;exitDx=0;exitDy=0;entryX=0;entryY=0.5;entryDx=0;entryDy=0;" parent="1" target="ROZJgOX0GMissYNZLgex-577" edge="1">
          <mxGeometry relative="1" as="geometry">
            <mxPoint x="4665" y="735" as="sourcePoint" />
          </mxGeometry>
        </mxCell>
        <mxCell id="ROZJgOX0GMissYNZLgex-575" value="No" style="text;html=1;align=center;verticalAlign=middle;resizable=0;points=[];autosize=1;strokeColor=none;fillColor=none;" parent="1" vertex="1">
          <mxGeometry x="4645" y="695" width="40" height="30" as="geometry" />
        </mxCell>
        <mxCell id="ROZJgOX0GMissYNZLgex-685" style="edgeStyle=orthogonalEdgeStyle;rounded=0;orthogonalLoop=1;jettySize=auto;html=1;exitX=0.5;exitY=1;exitDx=0;exitDy=0;entryX=1;entryY=0;entryDx=0;entryDy=0;" parent="1" source="ROZJgOX0GMissYNZLgex-577" target="ROZJgOX0GMissYNZLgex-674" edge="1">
          <mxGeometry relative="1" as="geometry">
            <Array as="points">
              <mxPoint x="4790" y="900" />
              <mxPoint x="4257" y="900" />
            </Array>
          </mxGeometry>
        </mxCell>
        <mxCell id="ROZJgOX0GMissYNZLgex-577" value="Ninth data byte?" style="rhombus;whiteSpace=wrap;html=1;" parent="1" vertex="1">
          <mxGeometry x="4710" y="695" width="160" height="80" as="geometry" />
        </mxCell>
        <mxCell id="ROZJgOX0GMissYNZLgex-584" value="Yes" style="text;html=1;align=center;verticalAlign=middle;resizable=0;points=[];autosize=1;strokeColor=none;fillColor=none;" parent="1" vertex="1">
          <mxGeometry x="1717.5" y="650" width="40" height="30" as="geometry" />
        </mxCell>
        <mxCell id="ROZJgOX0GMissYNZLgex-590" style="edgeStyle=orthogonalEdgeStyle;rounded=0;orthogonalLoop=1;jettySize=auto;html=1;exitX=1;exitY=0.5;exitDx=0;exitDy=0;entryX=0;entryY=0.5;entryDx=0;entryDy=0;" parent="1" source="ROZJgOX0GMissYNZLgex-585" edge="1">
          <mxGeometry relative="1" as="geometry">
            <mxPoint x="2678" y="625" as="targetPoint" />
          </mxGeometry>
        </mxCell>
        <mxCell id="ROZJgOX0GMissYNZLgex-651" style="edgeStyle=orthogonalEdgeStyle;rounded=0;orthogonalLoop=1;jettySize=auto;html=1;exitX=0.5;exitY=0;exitDx=0;exitDy=0;" parent="1" source="ROZJgOX0GMissYNZLgex-585" edge="1">
          <mxGeometry relative="1" as="geometry">
            <mxPoint x="2160" y="165" as="targetPoint" />
            <Array as="points">
              <mxPoint x="2561" y="165" />
            </Array>
          </mxGeometry>
        </mxCell>
        <mxCell id="ROZJgOX0GMissYNZLgex-585" value="Sysex&lt;div&gt;end or utilised non-&lt;/div&gt;&lt;div&gt;realtime status&lt;/div&gt;&lt;div&gt;byte?&lt;/div&gt;" style="rhombus;whiteSpace=wrap;html=1;" parent="1" vertex="1">
          <mxGeometry x="2481" y="585" width="160" height="80" as="geometry" />
        </mxCell>
        <mxCell id="ROZJgOX0GMissYNZLgex-587" value="No" style="text;html=1;align=center;verticalAlign=middle;resizable=0;points=[];autosize=1;strokeColor=none;fillColor=none;" parent="1" vertex="1">
          <mxGeometry x="2235" y="595" width="35" height="30" as="geometry" />
        </mxCell>
        <mxCell id="ROZJgOX0GMissYNZLgex-588" value="Yes" style="text;html=1;align=center;verticalAlign=middle;resizable=0;points=[];autosize=1;strokeColor=none;fillColor=none;" parent="1" vertex="1">
          <mxGeometry x="2161" y="552" width="40" height="30" as="geometry" />
        </mxCell>
        <mxCell id="ROZJgOX0GMissYNZLgex-654" style="edgeStyle=orthogonalEdgeStyle;rounded=0;orthogonalLoop=1;jettySize=auto;html=1;exitX=0.5;exitY=0;exitDx=0;exitDy=0;entryX=0.5;entryY=1;entryDx=0;entryDy=0;" parent="1" edge="1">
          <mxGeometry relative="1" as="geometry">
            <mxPoint x="2758" y="585" as="sourcePoint" />
            <mxPoint x="2757.5" y="555" as="targetPoint" />
          </mxGeometry>
        </mxCell>
        <mxCell id="ROZJgOX0GMissYNZLgex-591" value="Yes" style="text;html=1;align=center;verticalAlign=middle;resizable=0;points=[];autosize=1;strokeColor=none;fillColor=none;" parent="1" vertex="1">
          <mxGeometry x="2634.5" y="595" width="40" height="30" as="geometry" />
        </mxCell>
        <mxCell id="ROZJgOX0GMissYNZLgex-601" value="Yes" style="text;html=1;align=center;verticalAlign=middle;resizable=0;points=[];autosize=1;strokeColor=none;fillColor=none;" parent="1" vertex="1">
          <mxGeometry x="3930" y="779" width="40" height="30" as="geometry" />
        </mxCell>
        <mxCell id="ROZJgOX0GMissYNZLgex-603" value="Yes" style="text;html=1;align=center;verticalAlign=middle;resizable=0;points=[];autosize=1;strokeColor=none;fillColor=none;" parent="1" vertex="1">
          <mxGeometry x="4135" y="779" width="40" height="30" as="geometry" />
        </mxCell>
        <mxCell id="ROZJgOX0GMissYNZLgex-613" value="Yes" style="text;html=1;align=center;verticalAlign=middle;resizable=0;points=[];autosize=1;strokeColor=none;fillColor=none;" parent="1" vertex="1">
          <mxGeometry x="4340" y="777" width="40" height="30" as="geometry" />
        </mxCell>
        <mxCell id="ROZJgOX0GMissYNZLgex-615" value="Yes" style="text;html=1;align=center;verticalAlign=middle;resizable=0;points=[];autosize=1;strokeColor=none;fillColor=none;" parent="1" vertex="1">
          <mxGeometry x="4545" y="777" width="40" height="30" as="geometry" />
        </mxCell>
        <mxCell id="ROZJgOX0GMissYNZLgex-625" value="Yes" style="text;html=1;align=center;verticalAlign=middle;resizable=0;points=[];autosize=1;strokeColor=none;fillColor=none;" parent="1" vertex="1">
          <mxGeometry x="4750" y="777" width="40" height="30" as="geometry" />
        </mxCell>
        <mxCell id="ROZJgOX0GMissYNZLgex-640" style="edgeStyle=orthogonalEdgeStyle;rounded=0;orthogonalLoop=1;jettySize=auto;html=1;exitX=0.5;exitY=0;exitDx=0;exitDy=0;entryX=0.5;entryY=1;entryDx=0;entryDy=0;" parent="1" source="ROZJgOX0GMissYNZLgex-636" target="ROZJgOX0GMissYNZLgex-639" edge="1">
          <mxGeometry relative="1" as="geometry" />
        </mxCell>
        <mxCell id="ROZJgOX0GMissYNZLgex-724" style="edgeStyle=orthogonalEdgeStyle;rounded=0;orthogonalLoop=1;jettySize=auto;html=1;exitX=1;exitY=0.5;exitDx=0;exitDy=0;entryX=0;entryY=0.5;entryDx=0;entryDy=0;" parent="1" source="ROZJgOX0GMissYNZLgex-636" target="ROZJgOX0GMissYNZLgex-723" edge="1">
          <mxGeometry relative="1" as="geometry" />
        </mxCell>
        <mxCell id="ROZJgOX0GMissYNZLgex-636" value="Sysex Start?" style="rhombus;whiteSpace=wrap;html=1;" parent="1" vertex="1">
          <mxGeometry x="1803" y="2259.8" width="160" height="70" as="geometry" />
        </mxCell>
        <mxCell id="ROZJgOX0GMissYNZLgex-638" value="No" style="text;html=1;align=center;verticalAlign=middle;resizable=0;points=[];autosize=1;strokeColor=none;fillColor=none;" parent="1" vertex="1">
          <mxGeometry x="1762.5" y="2264.8" width="35" height="30" as="geometry" />
        </mxCell>
        <mxCell id="ROZJgOX0GMissYNZLgex-686" style="edgeStyle=orthogonalEdgeStyle;rounded=0;orthogonalLoop=1;jettySize=auto;html=1;exitX=0.5;exitY=0;exitDx=0;exitDy=0;jumpStyle=arc;" parent="1" source="ROZJgOX0GMissYNZLgex-639" edge="1">
          <mxGeometry relative="1" as="geometry">
            <mxPoint x="1205" y="1135" as="targetPoint" />
            <Array as="points">
              <mxPoint x="1885" y="1835" />
              <mxPoint x="1810" y="1835" />
              <mxPoint x="1810" y="1598" />
              <mxPoint x="1360" y="1598" />
              <mxPoint x="1360" y="1230" />
              <mxPoint x="1205" y="1230" />
            </Array>
          </mxGeometry>
        </mxCell>
        <mxCell id="ROZJgOX0GMissYNZLgex-639" value="Clear running status and reset timer, clear data buffer" style="rounded=0;whiteSpace=wrap;html=1;" parent="1" vertex="1">
          <mxGeometry x="1825" y="2164.8" width="120" height="60" as="geometry" />
        </mxCell>
        <mxCell id="ROZJgOX0GMissYNZLgex-641" value="Yes" style="text;html=1;align=center;verticalAlign=middle;resizable=0;points=[];autosize=1;strokeColor=none;fillColor=none;" parent="1" vertex="1">
          <mxGeometry x="1885" y="2224.8" width="40" height="30" as="geometry" />
        </mxCell>
        <mxCell id="ROZJgOX0GMissYNZLgex-644" style="edgeStyle=orthogonalEdgeStyle;rounded=0;orthogonalLoop=1;jettySize=auto;html=1;exitX=1;exitY=0.5;exitDx=0;exitDy=0;entryX=0;entryY=0.5;entryDx=0;entryDy=0;" parent="1" source="ROZJgOX0GMissYNZLgex-642" target="ROZJgOX0GMissYNZLgex-585" edge="1">
          <mxGeometry relative="1" as="geometry" />
        </mxCell>
        <mxCell id="ROZJgOX0GMissYNZLgex-646" style="edgeStyle=orthogonalEdgeStyle;rounded=0;orthogonalLoop=1;jettySize=auto;html=1;exitX=0.5;exitY=0;exitDx=0;exitDy=0;entryX=0.5;entryY=1;entryDx=0;entryDy=0;" parent="1" source="ROZJgOX0GMissYNZLgex-642" target="ROZJgOX0GMissYNZLgex-645" edge="1">
          <mxGeometry relative="1" as="geometry" />
        </mxCell>
        <mxCell id="ROZJgOX0GMissYNZLgex-642" value="Sysex&lt;div&gt;Start?&lt;/div&gt;" style="rhombus;whiteSpace=wrap;html=1;" parent="1" vertex="1">
          <mxGeometry x="2280" y="585" width="160" height="80" as="geometry" />
        </mxCell>
        <mxCell id="ROZJgOX0GMissYNZLgex-647" style="edgeStyle=orthogonalEdgeStyle;rounded=0;orthogonalLoop=1;jettySize=auto;html=1;exitX=0.5;exitY=0;exitDx=0;exitDy=0;" parent="1" source="ROZJgOX0GMissYNZLgex-645" edge="1">
          <mxGeometry relative="1" as="geometry">
            <mxPoint x="1960" y="-70" as="targetPoint" />
            <Array as="points">
              <mxPoint x="2360" y="-70" />
            </Array>
          </mxGeometry>
        </mxCell>
        <mxCell id="ROZJgOX0GMissYNZLgex-645" value="Reset Timer and data buffer, clear active status" style="rounded=0;whiteSpace=wrap;html=1;" parent="1" vertex="1">
          <mxGeometry x="2300" y="495" width="120" height="60" as="geometry" />
        </mxCell>
        <mxCell id="ROZJgOX0GMissYNZLgex-648" value="Yes" style="text;html=1;align=center;verticalAlign=middle;resizable=0;points=[];autosize=1;strokeColor=none;fillColor=none;" parent="1" vertex="1">
          <mxGeometry x="2360" y="555" width="40" height="30" as="geometry" />
        </mxCell>
        <mxCell id="ROZJgOX0GMissYNZLgex-649" value="No" style="text;html=1;align=center;verticalAlign=middle;resizable=0;points=[];autosize=1;strokeColor=none;fillColor=none;" parent="1" vertex="1">
          <mxGeometry x="2440.5" y="595" width="35" height="30" as="geometry" />
        </mxCell>
        <mxCell id="ROZJgOX0GMissYNZLgex-652" value="No" style="text;html=1;align=center;verticalAlign=middle;resizable=0;points=[];autosize=1;strokeColor=none;fillColor=none;" parent="1" vertex="1">
          <mxGeometry x="2565" y="555" width="35" height="30" as="geometry" />
        </mxCell>
        <mxCell id="ROZJgOX0GMissYNZLgex-655" style="edgeStyle=orthogonalEdgeStyle;rounded=0;orthogonalLoop=1;jettySize=auto;html=1;exitX=0.5;exitY=0;exitDx=0;exitDy=0;" parent="1" edge="1">
          <mxGeometry relative="1" as="geometry">
            <mxPoint x="2362.25" y="-70" as="targetPoint" />
            <mxPoint x="2759.75" y="495" as="sourcePoint" />
            <Array as="points">
              <mxPoint x="2760.25" y="-70" />
            </Array>
          </mxGeometry>
        </mxCell>
        <mxCell id="ROZJgOX0GMissYNZLgex-656" value="Clear all buffers, stop timer" style="rounded=0;whiteSpace=wrap;html=1;" parent="1" vertex="1">
          <mxGeometry x="2697.5" y="495" width="120" height="60" as="geometry" />
        </mxCell>
        <mxCell id="ROZJgOX0GMissYNZLgex-668" style="edgeStyle=orthogonalEdgeStyle;rounded=0;orthogonalLoop=1;jettySize=auto;html=1;exitX=0.5;exitY=0;exitDx=0;exitDy=0;" parent="1" source="ROZJgOX0GMissYNZLgex-657" edge="1">
          <mxGeometry relative="1" as="geometry">
            <mxPoint x="2760" y="-70" as="targetPoint" />
            <Array as="points">
              <mxPoint x="3160" y="-70" />
            </Array>
          </mxGeometry>
        </mxCell>
        <mxCell id="ROZJgOX0GMissYNZLgex-657" value="Process message, stop timer, clear data buffer (running status should have already been cleared when start received)" style="rounded=0;whiteSpace=wrap;html=1;" parent="1" vertex="1">
          <mxGeometry x="3100" y="579" width="120" height="90" as="geometry" />
        </mxCell>
        <mxCell id="ROZJgOX0GMissYNZLgex-662" style="edgeStyle=orthogonalEdgeStyle;rounded=0;orthogonalLoop=1;jettySize=auto;html=1;exitX=1;exitY=0.5;exitDx=0;exitDy=0;entryX=0;entryY=0.5;entryDx=0;entryDy=0;" parent="1" source="ROZJgOX0GMissYNZLgex-659" target="ROZJgOX0GMissYNZLgex-661" edge="1">
          <mxGeometry relative="1" as="geometry" />
        </mxCell>
        <mxCell id="ROZJgOX0GMissYNZLgex-659" value="Sysex status byte&amp;nbsp;&lt;div&gt;being actively&lt;/div&gt;&lt;div&gt;serviced?&lt;/div&gt;" style="rhombus;whiteSpace=wrap;html=1;" parent="1" vertex="1">
          <mxGeometry x="2677.5" y="584" width="160" height="80" as="geometry" />
        </mxCell>
        <mxCell id="ROZJgOX0GMissYNZLgex-663" style="edgeStyle=orthogonalEdgeStyle;rounded=0;orthogonalLoop=1;jettySize=auto;html=1;exitX=1;exitY=0.5;exitDx=0;exitDy=0;entryX=0;entryY=0.5;entryDx=0;entryDy=0;" parent="1" source="ROZJgOX0GMissYNZLgex-661" target="ROZJgOX0GMissYNZLgex-657" edge="1">
          <mxGeometry relative="1" as="geometry" />
        </mxCell>
        <mxCell id="ROZJgOX0GMissYNZLgex-661" value="Exactly 9 data bytes received?&amp;nbsp;" style="rhombus;whiteSpace=wrap;html=1;" parent="1" vertex="1">
          <mxGeometry x="2890" y="584" width="160" height="80" as="geometry" />
        </mxCell>
        <mxCell id="ROZJgOX0GMissYNZLgex-664" value="Yes" style="text;html=1;align=center;verticalAlign=middle;resizable=0;points=[];autosize=1;strokeColor=none;fillColor=none;" parent="1" vertex="1">
          <mxGeometry x="2830" y="595" width="40" height="30" as="geometry" />
        </mxCell>
        <mxCell id="ROZJgOX0GMissYNZLgex-665" value="Yes" style="text;html=1;align=center;verticalAlign=middle;resizable=0;points=[];autosize=1;strokeColor=none;fillColor=none;" parent="1" vertex="1">
          <mxGeometry x="3050" y="595" width="40" height="30" as="geometry" />
        </mxCell>
        <mxCell id="ROZJgOX0GMissYNZLgex-666" value="No" style="text;html=1;align=center;verticalAlign=middle;resizable=0;points=[];autosize=1;strokeColor=none;fillColor=none;" parent="1" vertex="1">
          <mxGeometry x="2765" y="555" width="35" height="30" as="geometry" />
        </mxCell>
        <mxCell id="ROZJgOX0GMissYNZLgex-683" style="edgeStyle=orthogonalEdgeStyle;rounded=0;orthogonalLoop=1;jettySize=auto;html=1;exitX=0.5;exitY=1;exitDx=0;exitDy=0;jumpStyle=arc;" parent="1" source="ROZJgOX0GMissYNZLgex-674" edge="1">
          <mxGeometry relative="1" as="geometry">
            <mxPoint x="2560" y="165" as="targetPoint" />
            <Array as="points">
              <mxPoint x="4175" y="1099" />
              <mxPoint x="3365" y="1099" />
              <mxPoint x="3365" y="165" />
            </Array>
          </mxGeometry>
        </mxCell>
        <mxCell id="ROZJgOX0GMissYNZLgex-674" value="Store data byte in data buffer" style="rounded=0;whiteSpace=wrap;html=1;" parent="1" vertex="1">
          <mxGeometry x="4093" y="975" width="164" height="104" as="geometry" />
        </mxCell>
        <mxCell id="ROZJgOX0GMissYNZLgex-678" style="edgeStyle=orthogonalEdgeStyle;rounded=0;orthogonalLoop=1;jettySize=auto;html=1;exitX=0.5;exitY=1;exitDx=0;exitDy=0;jumpStyle=arc;" parent="1" source="ROZJgOX0GMissYNZLgex-562" edge="1">
          <mxGeometry relative="1" as="geometry">
            <mxPoint x="4113" y="975" as="targetPoint" />
            <Array as="points">
              <mxPoint x="4175" y="820" />
              <mxPoint x="4114" y="820" />
              <mxPoint x="4114" y="975" />
            </Array>
          </mxGeometry>
        </mxCell>
        <mxCell id="ROZJgOX0GMissYNZLgex-679" style="edgeStyle=orthogonalEdgeStyle;rounded=0;orthogonalLoop=1;jettySize=auto;html=1;exitX=0.5;exitY=1;exitDx=0;exitDy=0;entryX=0.378;entryY=-0.003;entryDx=0;entryDy=0;entryPerimeter=0;jumpStyle=arc;" parent="1" source="ROZJgOX0GMissYNZLgex-567" target="ROZJgOX0GMissYNZLgex-674" edge="1">
          <mxGeometry relative="1" as="geometry" />
        </mxCell>
        <mxCell id="ROZJgOX0GMissYNZLgex-680" style="edgeStyle=orthogonalEdgeStyle;rounded=0;orthogonalLoop=1;jettySize=auto;html=1;exitX=0.5;exitY=1;exitDx=0;exitDy=0;entryX=0.628;entryY=0.003;entryDx=0;entryDy=0;entryPerimeter=0;jumpStyle=arc;" parent="1" source="ROZJgOX0GMissYNZLgex-572" target="ROZJgOX0GMissYNZLgex-674" edge="1">
          <mxGeometry relative="1" as="geometry">
            <mxPoint x="4195" y="973" as="targetPoint" />
            <Array as="points">
              <mxPoint x="4585" y="850" />
              <mxPoint x="4195" y="850" />
              <mxPoint x="4195" y="975" />
            </Array>
          </mxGeometry>
        </mxCell>
        <mxCell id="ROZJgOX0GMissYNZLgex-727" style="edgeStyle=orthogonalEdgeStyle;rounded=0;orthogonalLoop=1;jettySize=auto;html=1;exitX=0.5;exitY=0;exitDx=0;exitDy=0;entryX=0.5;entryY=1;entryDx=0;entryDy=0;" parent="1" source="ROZJgOX0GMissYNZLgex-723" target="ROZJgOX0GMissYNZLgex-726" edge="1">
          <mxGeometry relative="1" as="geometry" />
        </mxCell>
        <mxCell id="ROZJgOX0GMissYNZLgex-723" value="Sysex End?" style="rhombus;whiteSpace=wrap;html=1;" parent="1" vertex="1">
          <mxGeometry x="2000" y="2259.8" width="160" height="70" as="geometry" />
        </mxCell>
        <mxCell id="ROZJgOX0GMissYNZLgex-725" value="No" style="text;html=1;align=center;verticalAlign=middle;resizable=0;points=[];autosize=1;strokeColor=none;fillColor=none;" parent="1" vertex="1">
          <mxGeometry x="1962.5" y="2264.8" width="35" height="30" as="geometry" />
        </mxCell>
        <mxCell id="ROZJgOX0GMissYNZLgex-729" style="edgeStyle=orthogonalEdgeStyle;rounded=0;orthogonalLoop=1;jettySize=auto;html=1;exitX=0.5;exitY=0;exitDx=0;exitDy=0;jumpStyle=arc;" parent="1" source="ROZJgOX0GMissYNZLgex-726" edge="1">
          <mxGeometry relative="1" as="geometry">
            <mxPoint x="1685" y="1835" as="targetPoint" />
            <Array as="points">
              <mxPoint x="2080" y="1880" />
              <mxPoint x="1750" y="1880" />
              <mxPoint x="1750" y="1835" />
            </Array>
          </mxGeometry>
        </mxCell>
        <mxCell id="ROZJgOX0GMissYNZLgex-726" value="Ignore" style="rounded=0;whiteSpace=wrap;html=1;" parent="1" vertex="1">
          <mxGeometry x="2020" y="2164.8" width="120" height="60" as="geometry" />
        </mxCell>
        <mxCell id="ROZJgOX0GMissYNZLgex-728" value="Yes" style="text;html=1;align=center;verticalAlign=middle;resizable=0;points=[];autosize=1;strokeColor=none;fillColor=none;" parent="1" vertex="1">
          <mxGeometry x="2080" y="2224.8" width="40" height="30" as="geometry" />
        </mxCell>
        <mxCell id="ROZJgOX0GMissYNZLgex-733" style="edgeStyle=orthogonalEdgeStyle;rounded=0;orthogonalLoop=1;jettySize=auto;html=1;exitX=0.5;exitY=0;exitDx=0;exitDy=0;entryX=0.5;entryY=1;entryDx=0;entryDy=0;" parent="1" source="ROZJgOX0GMissYNZLgex-730" target="ROZJgOX0GMissYNZLgex-732" edge="1">
          <mxGeometry relative="1" as="geometry" />
        </mxCell>
        <mxCell id="ROZJgOX0GMissYNZLgex-735" style="edgeStyle=orthogonalEdgeStyle;rounded=0;orthogonalLoop=1;jettySize=auto;html=1;exitX=1;exitY=0.5;exitDx=0;exitDy=0;entryX=1;entryY=0.5;entryDx=0;entryDy=0;" parent="1" source="ROZJgOX0GMissYNZLgex-730" target="ROZJgOX0GMissYNZLgex-283" edge="1">
          <mxGeometry relative="1" as="geometry" />
        </mxCell>
        <mxCell id="ROZJgOX0GMissYNZLgex-730" value="Sysex&lt;div&gt;actively serviced?&lt;/div&gt;" style="rhombus;whiteSpace=wrap;html=1;" parent="1" vertex="1">
          <mxGeometry x="1880" y="467" width="160" height="80" as="geometry" />
        </mxCell>
        <mxCell id="ROZJgOX0GMissYNZLgex-734" style="edgeStyle=orthogonalEdgeStyle;rounded=0;orthogonalLoop=1;jettySize=auto;html=1;exitX=0.5;exitY=0;exitDx=0;exitDy=0;entryX=0.5;entryY=1;entryDx=0;entryDy=0;" parent="1" source="ROZJgOX0GMissYNZLgex-732" target="ROZJgOX0GMissYNZLgex-283" edge="1">
          <mxGeometry relative="1" as="geometry" />
        </mxCell>
        <mxCell id="ROZJgOX0GMissYNZLgex-732" value="Abort Sysex" style="rounded=0;whiteSpace=wrap;html=1;" parent="1" vertex="1">
          <mxGeometry x="1900" y="362" width="120" height="60" as="geometry" />
        </mxCell>
        <mxCell id="ROZJgOX0GMissYNZLgex-736" value="Yes" style="text;html=1;align=center;verticalAlign=middle;resizable=0;points=[];autosize=1;strokeColor=none;fillColor=none;" parent="1" vertex="1">
          <mxGeometry x="1956" y="433" width="40" height="30" as="geometry" />
        </mxCell>
        <mxCell id="ROZJgOX0GMissYNZLgex-737" value="No" style="text;html=1;align=center;verticalAlign=middle;resizable=0;points=[];autosize=1;strokeColor=none;fillColor=none;" parent="1" vertex="1">
          <mxGeometry x="2026" y="477" width="35" height="30" as="geometry" />
        </mxCell>
      </root>
    </mxGraphModel>
  </diagram>
</mxfile>
